G04 #@! TF.FileFunction,Copper,L2,Bot,Signal*
%FSLAX46Y46*%
G04 Gerber Fmt 4.6, Leading zero omitted, Abs format (unit mm)*
G04 Created by KiCad (PCBNEW 4.0.2-stable) date 6/23/2016 4:44:23 PM*
%MOMM*%
G01*
G04 APERTURE LIST*
%ADD10C,0.100000*%
%ADD11R,1.727200X2.032000*%
%ADD12O,1.727200X2.032000*%
%ADD13C,0.600000*%
%ADD14C,0.250000*%
%ADD15C,0.254000*%
G04 APERTURE END LIST*
D10*
D11*
X173950000Y-104450000D03*
D12*
X171410000Y-104450000D03*
X168870000Y-104450000D03*
D13*
X169000000Y-96800000D03*
X172500000Y-98050000D03*
X172500000Y-99000000D03*
X177850000Y-97200000D03*
X177800000Y-105450000D03*
X174300000Y-101450000D03*
X172300000Y-102200000D03*
X175250000Y-100250000D03*
X175800000Y-101950000D03*
D14*
X174300000Y-101450000D02*
X173550000Y-101700000D01*
X173550000Y-101700000D02*
X172300000Y-102200000D01*
X175250000Y-101400000D02*
X175250000Y-100250000D01*
X175800000Y-101950000D02*
X175250000Y-101400000D01*
D15*
G36*
X181672041Y-95176208D02*
X181574967Y-107990000D01*
X165678215Y-107990000D01*
X165702291Y-104811913D01*
X167384816Y-104811913D01*
X167578046Y-105364320D01*
X167967964Y-105800732D01*
X168495209Y-106054709D01*
X168510974Y-106057358D01*
X168743000Y-105936217D01*
X168743000Y-104577000D01*
X167529076Y-104577000D01*
X167384816Y-104811913D01*
X165702291Y-104811913D01*
X165707774Y-104088087D01*
X167384816Y-104088087D01*
X167529076Y-104323000D01*
X168743000Y-104323000D01*
X168743000Y-102963783D01*
X168997000Y-102963783D01*
X168997000Y-104323000D01*
X169017000Y-104323000D01*
X169017000Y-104577000D01*
X168997000Y-104577000D01*
X168997000Y-105936217D01*
X169229026Y-106057358D01*
X169244791Y-106054709D01*
X169772036Y-105800732D01*
X170143539Y-105384931D01*
X170350330Y-105694415D01*
X170836511Y-106019271D01*
X171410000Y-106133345D01*
X171983489Y-106019271D01*
X172469670Y-105694415D01*
X172479243Y-105680087D01*
X172483238Y-105701317D01*
X172622310Y-105917441D01*
X172834510Y-106062431D01*
X173086400Y-106113440D01*
X174813600Y-106113440D01*
X175048917Y-106069162D01*
X175265041Y-105930090D01*
X175410031Y-105717890D01*
X175461040Y-105466000D01*
X175461040Y-103434000D01*
X175416762Y-103198683D01*
X175277690Y-102982559D01*
X175065490Y-102837569D01*
X174813600Y-102786560D01*
X173086400Y-102786560D01*
X173024122Y-102798278D01*
X173092192Y-102730327D01*
X173106463Y-102695960D01*
X173811522Y-102413936D01*
X174017737Y-102345198D01*
X174113201Y-102384838D01*
X174485167Y-102385162D01*
X174828943Y-102243117D01*
X174885935Y-102186225D01*
X175006883Y-102478943D01*
X175269673Y-102742192D01*
X175613201Y-102884838D01*
X175985167Y-102885162D01*
X176328943Y-102743117D01*
X176592192Y-102480327D01*
X176734838Y-102136799D01*
X176735162Y-101764833D01*
X176593117Y-101421057D01*
X176330327Y-101157808D01*
X176010000Y-101024796D01*
X176010000Y-100812463D01*
X176042192Y-100780327D01*
X176184838Y-100436799D01*
X176185162Y-100064833D01*
X176043117Y-99721057D01*
X175780327Y-99457808D01*
X175436799Y-99315162D01*
X175064833Y-99314838D01*
X174721057Y-99456883D01*
X174457808Y-99719673D01*
X174315162Y-100063201D01*
X174314838Y-100435167D01*
X174347841Y-100515041D01*
X174114833Y-100514838D01*
X173771057Y-100656883D01*
X173517913Y-100909586D01*
X173309667Y-100979001D01*
X173289999Y-100990212D01*
X173267743Y-100994358D01*
X172537795Y-101286337D01*
X172486799Y-101265162D01*
X172114833Y-101264838D01*
X171771057Y-101406883D01*
X171507808Y-101669673D01*
X171365162Y-102013201D01*
X171364838Y-102385167D01*
X171506883Y-102728943D01*
X171577861Y-102800045D01*
X171410000Y-102766655D01*
X170836511Y-102880729D01*
X170350330Y-103205585D01*
X170143539Y-103515069D01*
X169772036Y-103099268D01*
X169244791Y-102845291D01*
X169229026Y-102842642D01*
X168997000Y-102963783D01*
X168743000Y-102963783D01*
X168510974Y-102842642D01*
X168495209Y-102845291D01*
X167967964Y-103099268D01*
X167578046Y-103535680D01*
X167384816Y-104088087D01*
X165707774Y-104088087D01*
X165775413Y-95160000D01*
X179062555Y-95160000D01*
X181672041Y-95176208D01*
X181672041Y-95176208D01*
G37*
X181672041Y-95176208D02*
X181574967Y-107990000D01*
X165678215Y-107990000D01*
X165702291Y-104811913D01*
X167384816Y-104811913D01*
X167578046Y-105364320D01*
X167967964Y-105800732D01*
X168495209Y-106054709D01*
X168510974Y-106057358D01*
X168743000Y-105936217D01*
X168743000Y-104577000D01*
X167529076Y-104577000D01*
X167384816Y-104811913D01*
X165702291Y-104811913D01*
X165707774Y-104088087D01*
X167384816Y-104088087D01*
X167529076Y-104323000D01*
X168743000Y-104323000D01*
X168743000Y-102963783D01*
X168997000Y-102963783D01*
X168997000Y-104323000D01*
X169017000Y-104323000D01*
X169017000Y-104577000D01*
X168997000Y-104577000D01*
X168997000Y-105936217D01*
X169229026Y-106057358D01*
X169244791Y-106054709D01*
X169772036Y-105800732D01*
X170143539Y-105384931D01*
X170350330Y-105694415D01*
X170836511Y-106019271D01*
X171410000Y-106133345D01*
X171983489Y-106019271D01*
X172469670Y-105694415D01*
X172479243Y-105680087D01*
X172483238Y-105701317D01*
X172622310Y-105917441D01*
X172834510Y-106062431D01*
X173086400Y-106113440D01*
X174813600Y-106113440D01*
X175048917Y-106069162D01*
X175265041Y-105930090D01*
X175410031Y-105717890D01*
X175461040Y-105466000D01*
X175461040Y-103434000D01*
X175416762Y-103198683D01*
X175277690Y-102982559D01*
X175065490Y-102837569D01*
X174813600Y-102786560D01*
X173086400Y-102786560D01*
X173024122Y-102798278D01*
X173092192Y-102730327D01*
X173106463Y-102695960D01*
X173811522Y-102413936D01*
X174017737Y-102345198D01*
X174113201Y-102384838D01*
X174485167Y-102385162D01*
X174828943Y-102243117D01*
X174885935Y-102186225D01*
X175006883Y-102478943D01*
X175269673Y-102742192D01*
X175613201Y-102884838D01*
X175985167Y-102885162D01*
X176328943Y-102743117D01*
X176592192Y-102480327D01*
X176734838Y-102136799D01*
X176735162Y-101764833D01*
X176593117Y-101421057D01*
X176330327Y-101157808D01*
X176010000Y-101024796D01*
X176010000Y-100812463D01*
X176042192Y-100780327D01*
X176184838Y-100436799D01*
X176185162Y-100064833D01*
X176043117Y-99721057D01*
X175780327Y-99457808D01*
X175436799Y-99315162D01*
X175064833Y-99314838D01*
X174721057Y-99456883D01*
X174457808Y-99719673D01*
X174315162Y-100063201D01*
X174314838Y-100435167D01*
X174347841Y-100515041D01*
X174114833Y-100514838D01*
X173771057Y-100656883D01*
X173517913Y-100909586D01*
X173309667Y-100979001D01*
X173289999Y-100990212D01*
X173267743Y-100994358D01*
X172537795Y-101286337D01*
X172486799Y-101265162D01*
X172114833Y-101264838D01*
X171771057Y-101406883D01*
X171507808Y-101669673D01*
X171365162Y-102013201D01*
X171364838Y-102385167D01*
X171506883Y-102728943D01*
X171577861Y-102800045D01*
X171410000Y-102766655D01*
X170836511Y-102880729D01*
X170350330Y-103205585D01*
X170143539Y-103515069D01*
X169772036Y-103099268D01*
X169244791Y-102845291D01*
X169229026Y-102842642D01*
X168997000Y-102963783D01*
X168743000Y-102963783D01*
X168510974Y-102842642D01*
X168495209Y-102845291D01*
X167967964Y-103099268D01*
X167578046Y-103535680D01*
X167384816Y-104088087D01*
X165707774Y-104088087D01*
X165775413Y-95160000D01*
X179062555Y-95160000D01*
X181672041Y-95176208D01*
M02*
