M48
;DRILL file {KiCad 4.0.2-stable} date Sunday, December 11, 2016 'AMt' 07:35:55 AM
;FORMAT={-:-/ absolute / metric / decimal}
FMAT,2
METRIC,TZ
T1C0.300
T2C0.400
T3C0.762
T4C0.813
T5C1.001
T6C1.016
T7C1.200
T8C3.048
%
G90
G05
M71
T1
X39.588Y-68.747
X44.088Y-71.352
X47.238Y-91.147
X49.488Y-70.082
X52.888Y-92.997
X55.088Y-93.397
X58.929Y-86.982
X58.929Y-88.252
X58.929Y-90.792
X58.929Y-92.062
X61.926Y-70.803
X65.279Y-88.252
X65.279Y-89.522
X65.279Y-90.792
X66.904Y-70.854
X70.688Y-90.597
X71.934Y-70.905
X72.688Y-92.197
X75.338Y-76.847
X75.338Y-91.547
X76.838Y-91.547
X77.166Y-70.956
X82.388Y-84.097
X82.45Y-93.271
X83.838Y-76.847
X84.482Y-93.725
X86.388Y-87.297
X86.388Y-88.797
X88.34Y-92.087
X94.69Y-88.277
X94.69Y-89.547
X94.69Y-90.817
X100.688Y-87.297
X100.688Y-91.997
X106.74Y-88.377
X113.09Y-89.647
X113.938Y-83.247
X128.418Y-67.789
X128.418Y-69.853
X128.418Y-71.853
X128.564Y-74.79
X128.614Y-77.33
X128.665Y-79.87
X128.665Y-96.075
X128.716Y-82.41
X128.716Y-98.564
X128.716Y-101.206
X128.767Y-93.789
X128.767Y-103.695
X128.818Y-85.051
X128.818Y-87.49
X128.919Y-91.046
X142.71Y-67.068
X142.761Y-69.608
X142.812Y-72.25
X144.21Y-64.579
X144.21Y-67.068
X148.447Y-59.898
X148.447Y-63.148
X148.447Y-63.798
X148.511Y-67.645
X148.511Y-68.295
X148.511Y-68.945
X148.511Y-69.596
X148.511Y-70.245
X148.511Y-70.895
X148.511Y-71.545
X150.246Y-56.883
X153.58Y-56.883
X154.347Y-61.198
X154.347Y-61.848
X154.347Y-62.498
X154.347Y-63.798
X154.411Y-69.596
X154.411Y-70.245
X154.411Y-70.895
X154.411Y-71.545
X158.66Y-57.137
X158.66Y-74.917
X160.66Y-59.677
X160.66Y-64.757
X160.66Y-72.377
T2
X46.288Y-57.747
X47.588Y-70.947
X57.588Y-92.947
X58.888Y-96.347
X59.588Y-74.047
X60.288Y-95.747
X61.288Y-80.647
X62.588Y-73.047
X64.488Y-73.747
X64.488Y-104.647
X64.588Y-80.647
X67.088Y-84.547
X68.488Y-75.547
X68.488Y-80.847
X69.788Y-76.647
X69.788Y-82.047
X71.988Y-89.747
X79.988Y-75.347
X83.288Y-90.347
X83.988Y-104.647
X84.288Y-88.547
X84.988Y-89.647
X87.388Y-72.447
X88.388Y-107.947
X89.288Y-80.747
X89.488Y-83.047
X89.688Y-89.647
X89.788Y-104.747
X92.288Y-89.647
X92.988Y-72.147
X96.988Y-88.647
X96.988Y-90.847
X101.788Y-73.647
X101.988Y-89.847
X102.288Y-72.147
X105.288Y-72.047
X105.388Y-73.647
X112.088Y-67.247
X141.688Y-62.847
X141.888Y-65.847
X146.188Y-58.347
X146.188Y-65.347
X149.988Y-68.647
X150.088Y-64.647
X151.488Y-65.447
X151.588Y-67.747
X157.088Y-61.547
T3
X58.268Y-76.947
X58.268Y-101.347
X65.888Y-76.947
X65.888Y-101.347
X87.668Y-76.947
X87.768Y-101.347
X95.288Y-76.947
X95.388Y-101.347
T4
X61.614Y-62.047
X64.154Y-62.047
X66.694Y-62.047
X69.234Y-62.047
X70.758Y-110.307
X71.774Y-62.047
X73.298Y-110.307
X74.314Y-62.047
X75.838Y-110.307
X76.854Y-62.047
X78.378Y-110.307
X79.394Y-62.047
X80.918Y-110.307
X83.458Y-62.047
X83.458Y-110.307
X85.998Y-62.047
X88.538Y-62.047
X88.538Y-110.307
X91.078Y-62.047
X91.078Y-110.307
X93.618Y-62.047
X93.618Y-110.307
X96.158Y-62.047
X96.158Y-110.307
X98.698Y-62.047
X98.698Y-110.307
X101.238Y-62.047
X101.238Y-110.307
X103.778Y-110.307
X106.318Y-62.047
X106.318Y-110.307
X108.858Y-62.047
X111.398Y-62.047
X111.398Y-110.307
X113.938Y-62.047
X113.938Y-110.307
X116.478Y-62.047
X116.478Y-110.307
X119.018Y-62.047
X119.018Y-110.307
X121.558Y-62.047
X121.558Y-110.307
X124.098Y-62.047
X124.098Y-110.307
X126.638Y-110.307
X129.178Y-110.307
X131.718Y-62.047
X131.718Y-64.587
X131.718Y-67.127
X131.718Y-69.667
X131.718Y-72.207
X131.718Y-74.747
X131.718Y-77.287
X131.718Y-79.827
X131.718Y-82.367
X131.718Y-84.907
X131.718Y-87.447
X131.718Y-89.987
X131.718Y-92.527
X131.718Y-95.067
X131.718Y-97.607
X131.718Y-100.147
X131.718Y-102.687
X131.718Y-105.227
X134.258Y-62.047
X134.258Y-64.587
X134.258Y-67.127
X134.258Y-69.667
X134.258Y-72.207
X134.258Y-74.747
X134.258Y-77.287
X134.258Y-79.827
X134.258Y-82.367
X134.258Y-84.907
X134.258Y-87.447
X134.258Y-89.987
X134.258Y-92.527
X134.258Y-95.067
X134.258Y-97.607
X134.258Y-100.147
X134.258Y-102.687
X134.258Y-105.227
T5
X150.646Y-53.166
X153.186Y-53.166
X157.859Y-53.192
X160.399Y-53.192
T6
X42.888Y-100.127
X42.888Y-102.667
X42.888Y-105.207
X42.888Y-107.747
X47.188Y-94.147
X47.188Y-96.687
X47.188Y-99.227
X47.488Y-79.747
X47.488Y-82.287
X47.488Y-84.827
X49.728Y-94.147
X49.728Y-96.687
X49.728Y-99.227
X50.028Y-79.747
X50.028Y-82.287
X50.028Y-84.827
X76.788Y-79.847
X76.788Y-82.387
X76.788Y-84.927
X76.862Y-94.475
X76.862Y-97.015
X76.862Y-99.555
X79.328Y-79.847
X79.328Y-82.387
X79.328Y-84.927
X79.402Y-94.475
X79.402Y-97.015
X79.402Y-99.555
X81.941Y-68.338
X84.481Y-68.338
X87.021Y-68.338
X89.561Y-68.338
X92.101Y-68.338
X94.641Y-68.338
X97.181Y-68.338
X99.721Y-68.338
X119.533Y-74.739
X119.533Y-77.279
X119.533Y-79.819
X119.533Y-82.359
X119.533Y-84.899
X119.533Y-87.439
X119.533Y-91.046
X119.533Y-93.586
X119.533Y-96.126
X119.533Y-98.666
X119.533Y-101.206
X119.533Y-103.746
T7
X39.316Y-51.93
X42.816Y-51.93
X46.316Y-51.93
X49.816Y-51.898
X53.316Y-51.93
X56.816Y-51.93
X60.316Y-51.93
X63.816Y-51.93
X67.316Y-51.93
X70.816Y-51.93
X75.79Y-52.031
X79.29Y-52.031
X82.79Y-52.031
X86.29Y-52.
X89.79Y-52.031
X93.29Y-52.031
X96.79Y-52.031
X100.29Y-52.031
X103.79Y-52.031
X107.29Y-52.031
X118.433Y-52.069
X121.933Y-52.069
X131.832Y-51.942
X135.332Y-51.942
X141.459Y-51.917
X144.959Y-51.917
X159.411Y-79.002
X159.411Y-82.502
X159.411Y-86.002
X159.411Y-93.002
X159.411Y-96.502
X159.411Y-100.002
X159.411Y-103.502
X159.411Y-107.002
X159.411Y-110.502
X159.443Y-89.502
T8
X51.771Y-110.273
X53.041Y-62.014
X127.971Y-62.014
X134.321Y-110.273
T0
M30
