G04 #@! TF.FileFunction,Paste,Top*
%FSLAX46Y46*%
G04 Gerber Fmt 4.6, Leading zero omitted, Abs format (unit mm)*
G04 Created by KiCad (PCBNEW 4.0.2-stable) date Sunday, December 11, 2016 'AMt' 07:35:52 AM*
%MOMM*%
G01*
G04 APERTURE LIST*
%ADD10C,0.100000*%
%ADD11R,2.500000X1.000000*%
%ADD12R,1.250000X1.000000*%
%ADD13R,1.000000X1.250000*%
%ADD14R,0.590000X0.450000*%
%ADD15R,0.500000X0.900000*%
%ADD16R,0.900000X0.500000*%
%ADD17R,1.300000X0.700000*%
%ADD18R,1.143000X0.508000*%
%ADD19R,1.550000X0.600000*%
%ADD20R,2.000000X3.800000*%
%ADD21R,2.000000X1.500000*%
%ADD22R,1.450000X0.450000*%
G04 APERTURE END LIST*
D10*
X40386000Y-49022000D02*
X161036000Y-49022000D01*
X37338000Y-110490000D02*
X37338000Y-51562000D01*
X160782000Y-113284000D02*
X39624000Y-113284000D01*
X163576000Y-51562000D02*
X163576000Y-110490000D01*
X163576000Y-51562000D02*
G75*
G03X161036000Y-49022000I-2540000J0D01*
G01*
X40386000Y-49022000D02*
G75*
G03X37338000Y-51562000I-254000J-2794000D01*
G01*
X160782000Y-113284000D02*
G75*
G03X163576000Y-110490000I0J2794000D01*
G01*
X37338000Y-110490000D02*
G75*
G03X39624000Y-113284000I2540000J-254000D01*
G01*
D11*
X77166000Y-67955800D03*
X61926000Y-67803400D03*
X66904400Y-67854200D03*
X71933600Y-67905000D03*
D12*
X128418000Y-65789000D03*
D13*
X160660000Y-57137000D03*
X158660000Y-59677000D03*
X158660000Y-62217000D03*
X160660000Y-62217000D03*
X158660000Y-64757000D03*
X158660000Y-67297000D03*
X160660000Y-67297000D03*
X158660000Y-69837000D03*
X160660000Y-69837000D03*
X158660000Y-72377000D03*
X160660000Y-74917000D03*
X148246000Y-56883000D03*
X155580000Y-56883000D03*
X39588000Y-65947000D03*
X41588000Y-65947000D03*
X41588000Y-68747000D03*
X53888000Y-70047000D03*
X51888000Y-70047000D03*
D14*
X138785500Y-64642500D03*
X140895500Y-64642500D03*
X138976000Y-72199000D03*
X141086000Y-72199000D03*
X138849000Y-67119000D03*
X140959000Y-67119000D03*
X138912500Y-69659000D03*
X141022500Y-69659000D03*
D15*
X76365200Y-66052200D03*
X77865200Y-66052200D03*
X61176000Y-65899800D03*
X62676000Y-65899800D03*
X66154400Y-65950600D03*
X67654400Y-65950600D03*
X71183600Y-66001400D03*
X72683600Y-66001400D03*
D16*
X98688000Y-90597000D03*
X98688000Y-92097000D03*
D15*
X85338000Y-76847000D03*
X147288000Y-77347000D03*
X145788000Y-77347000D03*
D16*
X100688000Y-85797000D03*
X96688000Y-93697000D03*
X96688000Y-92197000D03*
D15*
X147288000Y-84847000D03*
X145788000Y-84847000D03*
D16*
X96688000Y-85797000D03*
X96688000Y-87297000D03*
X100688000Y-93497000D03*
D15*
X85188000Y-101347000D03*
X83688000Y-101347000D03*
D16*
X98688000Y-88897000D03*
X98688000Y-87397000D03*
X70688000Y-92097000D03*
D15*
X55838000Y-76947000D03*
X54338000Y-76947000D03*
X147338000Y-82347000D03*
X145838000Y-82347000D03*
X147288000Y-79847000D03*
X145788000Y-79847000D03*
D16*
X72688000Y-87297000D03*
X72688000Y-85797000D03*
X68688000Y-85797000D03*
X68688000Y-87297000D03*
X68688000Y-93697000D03*
X68688000Y-92197000D03*
X72688000Y-93697000D03*
X70688000Y-88897000D03*
X70688000Y-87397000D03*
D15*
X55838000Y-101347000D03*
X54338000Y-101347000D03*
X76838000Y-76847000D03*
X47538000Y-76847000D03*
X46038000Y-76847000D03*
D16*
X104288000Y-87097000D03*
X104288000Y-88597000D03*
X86488000Y-84697000D03*
X86488000Y-83197000D03*
D17*
X82388000Y-85997000D03*
D16*
X57088000Y-84397000D03*
X57088000Y-82897000D03*
D17*
X53088000Y-83997000D03*
X53088000Y-85897000D03*
D16*
X84488000Y-83997000D03*
X84488000Y-85497000D03*
X55188000Y-83897000D03*
X55188000Y-85397000D03*
X55088000Y-87397000D03*
X55088000Y-88897000D03*
D15*
X105538000Y-83247000D03*
X104038000Y-83247000D03*
X45738000Y-91147000D03*
D16*
X115488000Y-87197000D03*
X115488000Y-88697000D03*
X86388000Y-94497000D03*
X86388000Y-95997000D03*
D17*
X82450000Y-95171000D03*
D16*
X56988000Y-94297000D03*
X56988000Y-95797000D03*
D17*
X52888000Y-94897000D03*
D15*
X115438000Y-83247000D03*
D16*
X84482000Y-95225000D03*
X86388000Y-91797000D03*
X86388000Y-90297000D03*
X55088000Y-94897000D03*
X55088000Y-91897000D03*
X55088000Y-90397000D03*
X108488000Y-100797000D03*
X108488000Y-99297000D03*
X106588000Y-96397000D03*
X106588000Y-97897000D03*
X111388000Y-100797000D03*
X111388000Y-99297000D03*
X113188000Y-96397000D03*
X113188000Y-97897000D03*
D15*
X124906000Y-74789800D03*
X123406000Y-74789800D03*
X124956800Y-77329800D03*
X123456800Y-77329800D03*
X125007600Y-79869800D03*
X123507600Y-79869800D03*
X125038000Y-82347000D03*
X123538000Y-82347000D03*
X125007600Y-84899000D03*
X123507600Y-84899000D03*
X125058400Y-87489800D03*
X123558400Y-87489800D03*
X125038000Y-91147000D03*
X123538000Y-91147000D03*
X125109200Y-93535000D03*
X123609200Y-93535000D03*
X125160000Y-96075000D03*
X123660000Y-96075000D03*
X125160000Y-98615000D03*
X123660000Y-98615000D03*
X125160000Y-101205800D03*
X123660000Y-101205800D03*
X125238000Y-103747000D03*
X123738000Y-103747000D03*
X127063600Y-74789800D03*
X127114400Y-77329800D03*
X127165200Y-79869800D03*
X127216000Y-82409800D03*
X127317600Y-85051400D03*
X127317600Y-87489800D03*
X127419200Y-91045800D03*
X127266800Y-93789000D03*
X127165200Y-96075000D03*
X127216000Y-98564200D03*
X127216000Y-101205800D03*
X127266800Y-103695000D03*
X142710000Y-64579000D03*
X144311600Y-72249800D03*
X144260800Y-69608200D03*
D16*
X155525000Y-53161000D03*
X155525000Y-54661000D03*
X148286000Y-53161000D03*
X148286000Y-54661000D03*
D18*
X65279200Y-93331800D03*
X65279200Y-92061800D03*
X65279200Y-86981800D03*
X65279200Y-85711800D03*
X58929200Y-85711800D03*
X58929200Y-89521800D03*
X58929200Y-93331800D03*
X94690000Y-93357000D03*
X94690000Y-92087000D03*
X94690000Y-87007000D03*
X94690000Y-85737000D03*
X88340000Y-85737000D03*
X88340000Y-87007000D03*
X88340000Y-89547000D03*
X88340000Y-90817000D03*
X88340000Y-93357000D03*
X88340000Y-88277000D03*
X113090000Y-93457000D03*
X113090000Y-92187000D03*
X113090000Y-90917000D03*
X113090000Y-88377000D03*
X113090000Y-87107000D03*
X113090000Y-85837000D03*
X106740000Y-85837000D03*
X106740000Y-87107000D03*
X106740000Y-89647000D03*
X106740000Y-90917000D03*
X106740000Y-92187000D03*
X106740000Y-93457000D03*
D19*
X44088000Y-67542000D03*
X44088000Y-68812000D03*
X44088000Y-70082000D03*
X49488000Y-71352000D03*
X49488000Y-68812000D03*
X49488000Y-67542000D03*
D20*
X119037500Y-68516000D03*
D21*
X125337500Y-68516000D03*
X125337500Y-66216000D03*
X125337500Y-70816000D03*
D22*
X154347500Y-63148500D03*
X154347500Y-60548500D03*
X154347500Y-59898500D03*
X148447500Y-60548500D03*
X148447500Y-61198500D03*
X148447500Y-61848500D03*
X148447500Y-62498500D03*
X154411000Y-68945500D03*
X154411000Y-68295500D03*
X154411000Y-67645500D03*
M02*
