G04 #@! TF.FileFunction,Soldermask,Bot*
%FSLAX46Y46*%
G04 Gerber Fmt 4.6, Leading zero omitted, Abs format (unit mm)*
G04 Created by KiCad (PCBNEW 4.0.2-stable) date Sunday, December 11, 2016 'AMt' 07:35:52 AM*
%MOMM*%
G01*
G04 APERTURE LIST*
%ADD10C,0.100000*%
%ADD11O,1.524000X2.540000*%
%ADD12C,1.524000*%
%ADD13R,2.000000X2.000000*%
%ADD14C,2.000000*%
%ADD15C,2.400000*%
%ADD16R,2.400000X2.400000*%
%ADD17C,4.064000*%
%ADD18R,2.500000X1.000000*%
%ADD19R,1.250000X1.000000*%
%ADD20R,1.000000X1.250000*%
%ADD21R,2.032000X1.727200*%
%ADD22O,2.032000X1.727200*%
%ADD23R,1.727200X1.727200*%
%ADD24O,1.727200X1.727200*%
%ADD25R,1.727200X2.032000*%
%ADD26O,1.727200X2.032000*%
%ADD27R,0.500000X0.900000*%
%ADD28R,0.900000X0.500000*%
%ADD29R,1.300000X0.700000*%
%ADD30R,1.824000X1.524000*%
%ADD31O,1.824000X1.524000*%
%ADD32R,1.143000X0.508000*%
%ADD33R,1.550000X0.600000*%
%ADD34R,1.450000X0.450000*%
G04 APERTURE END LIST*
D10*
X40386000Y-49022000D02*
X161036000Y-49022000D01*
X37338000Y-110490000D02*
X37338000Y-51562000D01*
X160782000Y-113284000D02*
X39624000Y-113284000D01*
X163576000Y-51562000D02*
X163576000Y-110490000D01*
X163576000Y-51562000D02*
G75*
G03X161036000Y-49022000I-2540000J0D01*
G01*
X40386000Y-49022000D02*
G75*
G03X37338000Y-51562000I-254000J-2794000D01*
G01*
X160782000Y-113284000D02*
G75*
G03X163576000Y-110490000I0J2794000D01*
G01*
X37338000Y-110490000D02*
G75*
G03X39624000Y-113284000I2540000J-254000D01*
G01*
D11*
X106318000Y-62047000D03*
X108858000Y-62047000D03*
X111398000Y-62047000D03*
X113938000Y-62047000D03*
X116478000Y-62047000D03*
X119018000Y-62047000D03*
X121558000Y-62047000D03*
X124098000Y-62047000D03*
X129178000Y-110307000D03*
X126638000Y-110307000D03*
X124098000Y-110307000D03*
X121558000Y-110307000D03*
X111398000Y-110307000D03*
X106318000Y-110307000D03*
X103778000Y-110307000D03*
X113938000Y-110307000D03*
X116478000Y-110307000D03*
X119018000Y-110307000D03*
X101238000Y-110307000D03*
X98698000Y-110307000D03*
X96158000Y-110307000D03*
X88538000Y-110307000D03*
X91078000Y-110307000D03*
X93618000Y-110307000D03*
X83458000Y-110307000D03*
X80918000Y-110307000D03*
X78378000Y-110307000D03*
X73298000Y-110307000D03*
X70758000Y-110307000D03*
X101238000Y-62047000D03*
X98698000Y-62047000D03*
X96158000Y-62047000D03*
X93618000Y-62047000D03*
X91078000Y-62047000D03*
X88538000Y-62047000D03*
X85998000Y-62047000D03*
X83458000Y-62047000D03*
X79394000Y-62047000D03*
X76854000Y-62047000D03*
X74314000Y-62047000D03*
X71774000Y-62047000D03*
X69234000Y-62047000D03*
X66694000Y-62047000D03*
X64154000Y-62047000D03*
X61614000Y-62047000D03*
X75838000Y-110307000D03*
D12*
X131718000Y-64587000D03*
X134258000Y-64587000D03*
X131718000Y-67127000D03*
X134258000Y-67127000D03*
X131718000Y-69667000D03*
X134258000Y-69667000D03*
X131718000Y-72207000D03*
X134258000Y-72207000D03*
X131718000Y-62047000D03*
X134258000Y-62047000D03*
X134258000Y-74747000D03*
X131718000Y-74747000D03*
X131718000Y-77287000D03*
X134258000Y-77287000D03*
X131718000Y-79827000D03*
X134258000Y-79827000D03*
X131718000Y-82367000D03*
X134258000Y-82367000D03*
X131718000Y-84907000D03*
X134258000Y-84907000D03*
X131718000Y-87447000D03*
X134258000Y-87447000D03*
X131718000Y-89987000D03*
X134258000Y-89987000D03*
X131718000Y-92527000D03*
X134258000Y-92527000D03*
X131718000Y-95067000D03*
X134258000Y-95067000D03*
X131718000Y-97607000D03*
X134258000Y-97607000D03*
X131718000Y-100147000D03*
X134258000Y-100147000D03*
X131718000Y-102687000D03*
X134258000Y-102687000D03*
X131718000Y-105227000D03*
X134258000Y-105227000D03*
D13*
X160399500Y-53191800D03*
D14*
X157859500Y-53191800D03*
D13*
X153185900Y-53166400D03*
D14*
X150645900Y-53166400D03*
D15*
X159411200Y-103502200D03*
X159411200Y-107002200D03*
X159411200Y-100002200D03*
X159411200Y-96502200D03*
X159411200Y-93002200D03*
X159442929Y-89502200D03*
D16*
X159411200Y-110502200D03*
D15*
X159411200Y-86002200D03*
X159411200Y-82502200D03*
X159411200Y-79002200D03*
X63816000Y-51929800D03*
X67316000Y-51929800D03*
X60316000Y-51929800D03*
X56816000Y-51929800D03*
X53316000Y-51929800D03*
X49816000Y-51898071D03*
D16*
X70816000Y-51929800D03*
D15*
X46316000Y-51929800D03*
X42816000Y-51929800D03*
X39316000Y-51929800D03*
X100290400Y-52031400D03*
X103790400Y-52031400D03*
X96790400Y-52031400D03*
X93290400Y-52031400D03*
X89790400Y-52031400D03*
X86290400Y-51999671D03*
D16*
X107290400Y-52031400D03*
D15*
X82790400Y-52031400D03*
X79290400Y-52031400D03*
X75790400Y-52031400D03*
D17*
X127971500Y-62013500D03*
X134321500Y-110273500D03*
X51771500Y-110273500D03*
X53041500Y-62013500D03*
D15*
X141458600Y-51917100D03*
D16*
X144958600Y-51917100D03*
D15*
X131832000Y-51942500D03*
D16*
X135332000Y-51942500D03*
D15*
X118433500Y-52069500D03*
D16*
X121933500Y-52069500D03*
D18*
X77166000Y-70955800D03*
X61926000Y-70803400D03*
X66904400Y-70854200D03*
X71933600Y-70905000D03*
D19*
X128418000Y-67789000D03*
X128418000Y-71853000D03*
X128418000Y-69853000D03*
D20*
X158660000Y-57137000D03*
X160660000Y-59677000D03*
X160660000Y-64757000D03*
X160660000Y-72377000D03*
X158660000Y-74917000D03*
X150246000Y-56883000D03*
X153580000Y-56883000D03*
X39588000Y-68747000D03*
D21*
X42888000Y-107747000D03*
D22*
X42888000Y-105207000D03*
X42888000Y-102667000D03*
X42888000Y-100127000D03*
D21*
X119533200Y-87439000D03*
D22*
X119533200Y-84899000D03*
X119533200Y-82359000D03*
X119533200Y-79819000D03*
X119533200Y-77279000D03*
X119533200Y-74739000D03*
D21*
X119533200Y-103745800D03*
D22*
X119533200Y-101205800D03*
X119533200Y-98665800D03*
X119533200Y-96125800D03*
X119533200Y-93585800D03*
X119533200Y-91045800D03*
D23*
X76788000Y-79847000D03*
D24*
X79328000Y-79847000D03*
X76788000Y-82387000D03*
X79328000Y-82387000D03*
X76788000Y-84927000D03*
X79328000Y-84927000D03*
D25*
X99721200Y-68338200D03*
D26*
X97181200Y-68338200D03*
X94641200Y-68338200D03*
X92101200Y-68338200D03*
X89561200Y-68338200D03*
X87021200Y-68338200D03*
X84481200Y-68338200D03*
X81941200Y-68338200D03*
D23*
X47488000Y-79747000D03*
D24*
X50028000Y-79747000D03*
X47488000Y-82287000D03*
X50028000Y-82287000D03*
X47488000Y-84827000D03*
X50028000Y-84827000D03*
D23*
X76862000Y-94475000D03*
D24*
X79402000Y-94475000D03*
X76862000Y-97015000D03*
X79402000Y-97015000D03*
X76862000Y-99555000D03*
X79402000Y-99555000D03*
D23*
X47188000Y-94147000D03*
D24*
X49728000Y-94147000D03*
X47188000Y-96687000D03*
X49728000Y-96687000D03*
X47188000Y-99227000D03*
X49728000Y-99227000D03*
D27*
X83838000Y-76847000D03*
D28*
X100688000Y-87297000D03*
X100688000Y-91997000D03*
X70688000Y-90597000D03*
X72688000Y-92197000D03*
D27*
X75338000Y-76847000D03*
D29*
X82388000Y-84097000D03*
D28*
X86388000Y-87297000D03*
X86388000Y-88797000D03*
D27*
X76838000Y-91547000D03*
X75338000Y-91547000D03*
X47238000Y-91147000D03*
D29*
X82450000Y-93271000D03*
X52888000Y-92997000D03*
D27*
X113938000Y-83247000D03*
D28*
X84482000Y-93725000D03*
X55088000Y-93397000D03*
D27*
X128563600Y-74789800D03*
X128614400Y-77329800D03*
X128665200Y-79869800D03*
X128716000Y-82409800D03*
X128817600Y-85051400D03*
X128817600Y-87489800D03*
X128919200Y-91045800D03*
X128766800Y-93789000D03*
X128665200Y-96075000D03*
X128716000Y-98564200D03*
X128716000Y-101205800D03*
X128766800Y-103695000D03*
X144210000Y-64579000D03*
X142811600Y-72249800D03*
X142710000Y-67068200D03*
X144210000Y-67068200D03*
X142760800Y-69608200D03*
D30*
X95288000Y-76947000D03*
D31*
X87668000Y-76947000D03*
D30*
X95388000Y-101347000D03*
D31*
X87768000Y-101347000D03*
D30*
X65888000Y-76947000D03*
D31*
X58268000Y-76947000D03*
D30*
X65888000Y-101347000D03*
D31*
X58268000Y-101347000D03*
D32*
X65279200Y-90791800D03*
X65279200Y-89521800D03*
X65279200Y-88251800D03*
X58929200Y-86981800D03*
X58929200Y-90791800D03*
X58929200Y-92061800D03*
X58929200Y-88251800D03*
X94690000Y-90817000D03*
X94690000Y-89547000D03*
X94690000Y-88277000D03*
X88340000Y-92087000D03*
X113090000Y-89647000D03*
X106740000Y-88377000D03*
D33*
X44088000Y-71352000D03*
X49488000Y-70082000D03*
D34*
X154347500Y-63798500D03*
X154347500Y-62498500D03*
X154347500Y-61848500D03*
X154347500Y-61198500D03*
X148447500Y-59898500D03*
X148447500Y-63148500D03*
X148447500Y-63798500D03*
X154411000Y-71545500D03*
X154411000Y-70895500D03*
X154411000Y-70245500D03*
X154411000Y-69595500D03*
X148511000Y-67645500D03*
X148511000Y-68295500D03*
X148511000Y-68945500D03*
X148511000Y-69595500D03*
X148511000Y-70245500D03*
X148511000Y-70895500D03*
X148511000Y-71545500D03*
M02*
