G04 #@! TF.FileFunction,Soldermask,Top*
%FSLAX46Y46*%
G04 Gerber Fmt 4.6, Leading zero omitted, Abs format (unit mm)*
G04 Created by KiCad (PCBNEW 4.0.7) date 12/13/17 11:19:57*
%MOMM*%
%LPD*%
G01*
G04 APERTURE LIST*
%ADD10C,0.100000*%
%ADD11C,4.464000*%
%ADD12C,2.750000*%
%ADD13R,1.850000X0.850000*%
%ADD14R,1.650000X1.400000*%
%ADD15R,1.400000X1.650000*%
%ADD16R,1.000000X0.850000*%
%ADD17R,1.300000X1.200000*%
%ADD18R,1.300000X0.900000*%
%ADD19R,0.900000X1.300000*%
%ADD20R,2.200000X2.200000*%
%ADD21O,2.200000X2.200000*%
%ADD22R,3.900000X3.900000*%
%ADD23C,2.500000*%
%ADD24C,2.150000*%
%ADD25O,2.200000X1.000000*%
%ADD26R,1.200000X1.200000*%
%ADD27O,2.398980X2.398980*%
%ADD28R,2.398980X2.398980*%
%ADD29C,1.600000*%
%ADD30R,1.600000X1.600000*%
G04 APERTURE END LIST*
D10*
D11*
X207645000Y-142875000D03*
X118745000Y-142875000D03*
X118745000Y-88265000D03*
D12*
X195848000Y-92964000D03*
X200848000Y-92964000D03*
X185848000Y-92964000D03*
X180848000Y-92964000D03*
D13*
X144243000Y-130130000D03*
X144243000Y-130780000D03*
X144243000Y-131430000D03*
X144243000Y-132080000D03*
X144243000Y-132730000D03*
X144243000Y-133380000D03*
X144243000Y-134030000D03*
X150143000Y-134030000D03*
X150143000Y-133380000D03*
X150143000Y-132730000D03*
X150143000Y-132080000D03*
X150143000Y-131430000D03*
X150143000Y-130780000D03*
X150143000Y-130130000D03*
D14*
X186436000Y-101076000D03*
X186436000Y-99076000D03*
X180848000Y-101076000D03*
X180848000Y-99076000D03*
X142113000Y-112030000D03*
X142113000Y-114030000D03*
X142113000Y-100600000D03*
X142113000Y-102600000D03*
X142113000Y-106410000D03*
X142113000Y-104410000D03*
X142113000Y-108220000D03*
X142113000Y-110220000D03*
X142113000Y-94980000D03*
X142113000Y-92980000D03*
X142113000Y-96790000D03*
X142113000Y-98790000D03*
D15*
X146288000Y-113665000D03*
X144288000Y-113665000D03*
X146288000Y-102235000D03*
X144288000Y-102235000D03*
X148098000Y-113665000D03*
X150098000Y-113665000D03*
X148098000Y-102235000D03*
X150098000Y-102235000D03*
D14*
X142113000Y-134890000D03*
X142113000Y-136890000D03*
X142113000Y-123460000D03*
X142113000Y-125460000D03*
X142113000Y-129270000D03*
X142113000Y-127270000D03*
X142113000Y-131080000D03*
X142113000Y-133080000D03*
X142113000Y-117840000D03*
X142113000Y-115840000D03*
X142113000Y-119650000D03*
X142113000Y-121650000D03*
D15*
X146288000Y-136525000D03*
X144288000Y-136525000D03*
X146288000Y-125095000D03*
X144288000Y-125095000D03*
X148098000Y-136525000D03*
X150098000Y-136525000D03*
X148098000Y-125095000D03*
X150098000Y-125095000D03*
D16*
X176310000Y-113284000D03*
X174210000Y-113284000D03*
X176310000Y-109728000D03*
X174210000Y-109728000D03*
X151418000Y-104775000D03*
X149318000Y-104775000D03*
X151418000Y-93345000D03*
X149318000Y-93345000D03*
X151418000Y-127635000D03*
X149318000Y-127635000D03*
X151418000Y-116205000D03*
X149318000Y-116205000D03*
D17*
X188468000Y-101126000D03*
X188468000Y-99026000D03*
D18*
X172720000Y-115050000D03*
X172720000Y-113550000D03*
X172720000Y-111494000D03*
X172720000Y-109994000D03*
D19*
X146443000Y-104775000D03*
X147943000Y-104775000D03*
X146443000Y-93345000D03*
X147943000Y-93345000D03*
D18*
X154178000Y-112510000D03*
X154178000Y-111010000D03*
X154178000Y-101080000D03*
X154178000Y-99580000D03*
D19*
X146443000Y-127635000D03*
X147943000Y-127635000D03*
X146443000Y-116205000D03*
X147943000Y-116205000D03*
D18*
X154178000Y-135370000D03*
X154178000Y-133870000D03*
X154178000Y-123940000D03*
X154178000Y-122440000D03*
D13*
X144243000Y-107270000D03*
X144243000Y-107920000D03*
X144243000Y-108570000D03*
X144243000Y-109220000D03*
X144243000Y-109870000D03*
X144243000Y-110520000D03*
X144243000Y-111170000D03*
X150143000Y-111170000D03*
X150143000Y-110520000D03*
X150143000Y-109870000D03*
X150143000Y-109220000D03*
X150143000Y-108570000D03*
X150143000Y-107920000D03*
X150143000Y-107270000D03*
X144243000Y-95840000D03*
X144243000Y-96490000D03*
X144243000Y-97140000D03*
X144243000Y-97790000D03*
X144243000Y-98440000D03*
X144243000Y-99090000D03*
X144243000Y-99740000D03*
X150143000Y-99740000D03*
X150143000Y-99090000D03*
X150143000Y-98440000D03*
X150143000Y-97790000D03*
X150143000Y-97140000D03*
X150143000Y-96490000D03*
X150143000Y-95840000D03*
X144243000Y-118700000D03*
X144243000Y-119350000D03*
X144243000Y-120000000D03*
X144243000Y-120650000D03*
X144243000Y-121300000D03*
X144243000Y-121950000D03*
X144243000Y-122600000D03*
X150143000Y-122600000D03*
X150143000Y-121950000D03*
X150143000Y-121300000D03*
X150143000Y-120650000D03*
X150143000Y-120000000D03*
X150143000Y-119350000D03*
X150143000Y-118700000D03*
D20*
X179324000Y-105664000D03*
D21*
X181864000Y-105664000D03*
X184404000Y-105664000D03*
D22*
X201168000Y-104648000D03*
X207168000Y-104648000D03*
X204168000Y-99948000D03*
D23*
X206806000Y-118536000D03*
D24*
X209296000Y-117276000D03*
X209296000Y-112776000D03*
D23*
X206806000Y-111526000D03*
D11*
X207645000Y-88265000D03*
D25*
X124454840Y-105437740D03*
X119242840Y-105437740D03*
X124454840Y-115597740D03*
X119242840Y-115597740D03*
X124454840Y-125757740D03*
X119242840Y-125757740D03*
X124454840Y-95277740D03*
X119242840Y-95277740D03*
D26*
X154178000Y-109385000D03*
X154178000Y-107785000D03*
X154178000Y-97828000D03*
X154178000Y-96228000D03*
X154178000Y-132245000D03*
X154178000Y-130645000D03*
X154178000Y-120815000D03*
X154178000Y-119215000D03*
D27*
X128270000Y-138430000D03*
D28*
X128270000Y-130810000D03*
D27*
X128270000Y-133350000D03*
X128270000Y-135890000D03*
D29*
X167584000Y-121938000D03*
X170124000Y-121938000D03*
X172664000Y-121938000D03*
X175204000Y-121938000D03*
X177744000Y-121938000D03*
X180284000Y-121938000D03*
X182824000Y-121938000D03*
X185364000Y-121938000D03*
X187904000Y-121938000D03*
X190444000Y-121938000D03*
X192984000Y-121938000D03*
X195524000Y-121938000D03*
X198064000Y-121938000D03*
X200604000Y-121938000D03*
X203144000Y-121938000D03*
X205684000Y-121938000D03*
X208224000Y-121938000D03*
D30*
X167584000Y-137430000D03*
D29*
X170124000Y-137430000D03*
X172664000Y-137430000D03*
X175204000Y-137430000D03*
X177744000Y-137430000D03*
X180284000Y-137430000D03*
X182824000Y-137430000D03*
X185364000Y-137430000D03*
X187904000Y-137430000D03*
X190444000Y-137430000D03*
X192984000Y-137430000D03*
X195524000Y-137430000D03*
X198064000Y-137430000D03*
X200604000Y-137430000D03*
X203144000Y-137430000D03*
X205684000Y-137430000D03*
X208224000Y-137430000D03*
M02*
