G04 #@! TF.FileFunction,Soldermask,Bot*
%FSLAX46Y46*%
G04 Gerber Fmt 4.6, Leading zero omitted, Abs format (unit mm)*
G04 Created by KiCad (PCBNEW 4.0.7) date 12/13/17 11:19:57*
%MOMM*%
%LPD*%
G01*
G04 APERTURE LIST*
%ADD10C,0.100000*%
%ADD11C,4.464000*%
%ADD12C,2.750000*%
%ADD13R,2.200000X2.200000*%
%ADD14O,2.200000X2.200000*%
%ADD15R,3.900000X3.900000*%
%ADD16C,2.500000*%
%ADD17C,2.150000*%
%ADD18O,2.200000X1.000000*%
%ADD19O,2.398980X2.398980*%
%ADD20R,2.398980X2.398980*%
%ADD21C,1.600000*%
%ADD22R,1.600000X1.600000*%
G04 APERTURE END LIST*
D10*
D11*
X207645000Y-142875000D03*
X118745000Y-142875000D03*
X118745000Y-88265000D03*
D12*
X195848000Y-92964000D03*
X200848000Y-92964000D03*
X185848000Y-92964000D03*
X180848000Y-92964000D03*
D13*
X179324000Y-105664000D03*
D14*
X181864000Y-105664000D03*
X184404000Y-105664000D03*
D15*
X201168000Y-104648000D03*
X207168000Y-104648000D03*
X204168000Y-99948000D03*
D16*
X206806000Y-118536000D03*
D17*
X209296000Y-117276000D03*
X209296000Y-112776000D03*
D16*
X206806000Y-111526000D03*
D11*
X207645000Y-88265000D03*
D18*
X124454840Y-105437740D03*
X119242840Y-105437740D03*
X124454840Y-115597740D03*
X119242840Y-115597740D03*
X124454840Y-125757740D03*
X119242840Y-125757740D03*
X124454840Y-95277740D03*
X119242840Y-95277740D03*
D19*
X128270000Y-138430000D03*
D20*
X128270000Y-130810000D03*
D19*
X128270000Y-133350000D03*
X128270000Y-135890000D03*
D21*
X167584000Y-121938000D03*
X170124000Y-121938000D03*
X172664000Y-121938000D03*
X175204000Y-121938000D03*
X177744000Y-121938000D03*
X180284000Y-121938000D03*
X182824000Y-121938000D03*
X185364000Y-121938000D03*
X187904000Y-121938000D03*
X190444000Y-121938000D03*
X192984000Y-121938000D03*
X195524000Y-121938000D03*
X198064000Y-121938000D03*
X200604000Y-121938000D03*
X203144000Y-121938000D03*
X205684000Y-121938000D03*
X208224000Y-121938000D03*
D22*
X167584000Y-137430000D03*
D21*
X170124000Y-137430000D03*
X172664000Y-137430000D03*
X175204000Y-137430000D03*
X177744000Y-137430000D03*
X180284000Y-137430000D03*
X182824000Y-137430000D03*
X185364000Y-137430000D03*
X187904000Y-137430000D03*
X190444000Y-137430000D03*
X192984000Y-137430000D03*
X195524000Y-137430000D03*
X198064000Y-137430000D03*
X200604000Y-137430000D03*
X203144000Y-137430000D03*
X205684000Y-137430000D03*
X208224000Y-137430000D03*
M02*
