M48
;DRILL file {KiCad 4.0.7} date 01/11/18 10:30:32
;FORMAT={-:-/ absolute / inch / decimal}
FMAT,2
INCH,TZ
T1C0.016
T2C0.031
T3C0.039
T4C0.039
T5C0.043
T6C0.051
T7C0.053
T8C0.120
%
G90
G05
M72
T1
X5.97Y-3.825
X5.97Y-3.875
X5.97Y-4.275
X5.97Y-4.725
X5.97Y-5.175
X5.97Y-5.225
X6.Y-4.84
X6.01Y-4.74
X6.02Y-4.5
X6.02Y-5.0575
X6.06Y-5.44
X6.17Y-4.3
X6.17Y-4.725
X6.17Y-4.97
X6.17Y-5.13
X6.18Y-4.025
X6.22Y-4.4
X6.245Y-4.725
X6.25Y-5.43
X6.26Y-4.5
X6.36Y-4.78
X6.44Y-4.5
X6.46Y-4.6
X6.535Y-4.6575
X7.07Y-4.32
X7.07Y-4.46
T2
X6.5978Y-4.8007
X6.5978Y-5.4106
X6.6978Y-4.8007
X6.6978Y-5.4106
X6.7978Y-4.8007
X6.7978Y-5.4106
X6.8978Y-4.8007
X6.8978Y-5.4106
X6.9978Y-4.8007
X6.9978Y-5.4106
X7.0978Y-4.8007
X7.0978Y-5.4106
X7.1978Y-4.8007
X7.1978Y-5.4106
X7.2978Y-4.8007
X7.2978Y-5.4106
X7.3978Y-4.8007
X7.3978Y-5.4106
X7.4978Y-4.8007
X7.4978Y-5.4106
X7.5978Y-4.8007
X7.5978Y-5.4106
X7.6978Y-4.8007
X7.6978Y-5.4106
X7.7978Y-4.8007
X7.7978Y-5.4106
X7.8978Y-4.8007
X7.8978Y-5.4106
X7.9978Y-4.8007
X7.9978Y-5.4106
X8.0978Y-4.8007
X8.0978Y-5.4106
X8.1978Y-4.8007
X8.1978Y-5.4106
T3
X8.24Y-4.44
X8.24Y-4.6172
T4
X7.06Y-4.16
X7.16Y-4.16
X7.26Y-4.16
T5
X5.05Y-5.15
X5.05Y-5.25
X5.05Y-5.35
X5.05Y-5.45
T6
X8.142Y-4.3908
X8.142Y-4.6668
T7
X7.12Y-3.66
X7.3169Y-3.66
X7.7106Y-3.66
X7.9074Y-3.66
T8
X4.675Y-3.475
X4.675Y-5.625
X8.175Y-3.475
X8.175Y-5.625
T1
X4.671Y-3.7511G85X4.7182Y-3.7511
G05
X4.671Y-4.1511G85X4.7182Y-4.1511
G05
X4.671Y-4.5511G85X4.7182Y-4.5511
G05
X4.671Y-4.9511G85X4.7182Y-4.9511
G05
X4.8762Y-3.7511G85X4.9234Y-3.7511
G05
X4.8762Y-4.1511G85X4.9234Y-4.1511
G05
X4.8762Y-4.5511G85X4.9234Y-4.5511
G05
X4.8762Y-4.9511G85X4.9234Y-4.9511
G05
T4
X7.92Y-4.1594G85X7.92Y-4.0806
G05
X8.0775Y-3.935G85X7.9987Y-3.935
G05
X8.1562Y-4.1594G85X8.1562Y-4.0806
G05
T0
M30
