G04 #@! TF.FileFunction,Copper,L2,Bot,Signal*
%FSLAX46Y46*%
G04 Gerber Fmt 4.6, Leading zero omitted, Abs format (unit mm)*
G04 Created by KiCad (PCBNEW 4.0.7) date 12/13/17 11:19:57*
%MOMM*%
%LPD*%
G01*
G04 APERTURE LIST*
%ADD10C,0.100000*%
%ADD11C,4.064000*%
%ADD12C,2.350000*%
%ADD13R,1.800000X1.800000*%
%ADD14O,1.800000X1.800000*%
%ADD15R,3.500000X3.500000*%
%ADD16C,2.100000*%
%ADD17C,1.750000*%
%ADD18O,1.800000X0.600000*%
%ADD19O,1.998980X1.998980*%
%ADD20R,1.998980X1.998980*%
%ADD21C,1.200000*%
%ADD22R,1.200000X1.200000*%
%ADD23C,0.600000*%
%ADD24C,0.250000*%
%ADD25C,0.254000*%
G04 APERTURE END LIST*
D10*
D11*
X207645000Y-142875000D03*
X118745000Y-142875000D03*
X118745000Y-88265000D03*
D12*
X195848000Y-92964000D03*
X200848000Y-92964000D03*
X185848000Y-92964000D03*
X180848000Y-92964000D03*
D13*
X179324000Y-105664000D03*
D14*
X181864000Y-105664000D03*
X184404000Y-105664000D03*
D15*
X201168000Y-104648000D03*
X207168000Y-104648000D03*
X204168000Y-99948000D03*
D16*
X206806000Y-118536000D03*
D17*
X209296000Y-117276000D03*
X209296000Y-112776000D03*
D16*
X206806000Y-111526000D03*
D11*
X207645000Y-88265000D03*
D18*
X124454840Y-105437740D03*
X119242840Y-105437740D03*
X124454840Y-115597740D03*
X119242840Y-115597740D03*
X124454840Y-125757740D03*
X119242840Y-125757740D03*
X124454840Y-95277740D03*
X119242840Y-95277740D03*
D19*
X128270000Y-138430000D03*
D20*
X128270000Y-130810000D03*
D19*
X128270000Y-133350000D03*
X128270000Y-135890000D03*
D21*
X167584000Y-121938000D03*
X170124000Y-121938000D03*
X172664000Y-121938000D03*
X175204000Y-121938000D03*
X177744000Y-121938000D03*
X180284000Y-121938000D03*
X182824000Y-121938000D03*
X185364000Y-121938000D03*
X187904000Y-121938000D03*
X190444000Y-121938000D03*
X192984000Y-121938000D03*
X195524000Y-121938000D03*
X198064000Y-121938000D03*
X200604000Y-121938000D03*
X203144000Y-121938000D03*
X205684000Y-121938000D03*
X208224000Y-121938000D03*
D22*
X167584000Y-137430000D03*
D21*
X170124000Y-137430000D03*
X172664000Y-137430000D03*
X175204000Y-137430000D03*
X177744000Y-137430000D03*
X180284000Y-137430000D03*
X182824000Y-137430000D03*
X185364000Y-137430000D03*
X187904000Y-137430000D03*
X190444000Y-137430000D03*
X192984000Y-137430000D03*
X195524000Y-137430000D03*
X198064000Y-137430000D03*
X200604000Y-137430000D03*
X203144000Y-137430000D03*
X205684000Y-137430000D03*
X208224000Y-137430000D03*
D23*
X153924000Y-138176000D03*
X165989000Y-118300500D03*
X179578000Y-113284000D03*
X152400000Y-122936000D03*
X164084000Y-116840000D03*
X151638000Y-132715000D03*
X157988000Y-111760000D03*
X151638000Y-98425000D03*
X179578000Y-109728000D03*
X159004000Y-114300000D03*
X151638000Y-131445000D03*
X151638000Y-97155000D03*
X163576000Y-114300000D03*
X152908000Y-114300000D03*
X151638000Y-120015000D03*
X151638000Y-108585000D03*
X158750000Y-137922000D03*
X152908000Y-128460500D03*
X152654000Y-120396000D03*
X156718000Y-126238000D03*
X156718000Y-130302000D03*
X161544000Y-121412000D03*
X158623000Y-120015000D03*
X156972000Y-102235000D03*
X156718000Y-120015000D03*
X156718000Y-109220000D03*
D24*
X157988000Y-126238000D02*
X157988000Y-124206000D01*
X157988000Y-126238000D02*
X157988000Y-137668000D01*
X157988000Y-137668000D02*
X157480000Y-138176000D01*
X157480000Y-138176000D02*
X153924000Y-138176000D01*
X163322000Y-120967500D02*
X165989000Y-118300500D01*
X163322000Y-121412000D02*
X163322000Y-120967500D01*
X161544000Y-123190000D02*
X163322000Y-121412000D01*
X159004000Y-123190000D02*
X161544000Y-123190000D01*
X157988000Y-124206000D02*
X159004000Y-123190000D01*
X179578000Y-113284000D02*
X187452000Y-113284000D01*
X187452000Y-113284000D02*
X194310000Y-120142000D01*
X194310000Y-120142000D02*
X194310000Y-133858000D01*
X197882000Y-137430000D02*
X194310000Y-133858000D01*
X197882000Y-137430000D02*
X198064000Y-137430000D01*
X152971500Y-123507500D02*
X152971500Y-127317500D01*
X152400000Y-122936000D02*
X152971500Y-123507500D01*
X157988000Y-116840000D02*
X157988000Y-111760000D01*
X164084000Y-116840000D02*
X157988000Y-116840000D01*
X151638000Y-132715000D02*
X152019000Y-132715000D01*
X152019000Y-132715000D02*
X152273000Y-132461000D01*
X152273000Y-132461000D02*
X152273000Y-128016000D01*
X152273000Y-128016000D02*
X152971500Y-127317500D01*
X152971500Y-127317500D02*
X155448000Y-124841000D01*
X155448000Y-124841000D02*
X155448000Y-123190000D01*
X155448000Y-123190000D02*
X157988000Y-120650000D01*
X157988000Y-120650000D02*
X157988000Y-116840000D01*
X157988000Y-95758000D02*
X157988000Y-111760000D01*
X157480000Y-95250000D02*
X157988000Y-95758000D01*
X152908000Y-95250000D02*
X157480000Y-95250000D01*
X152273000Y-95885000D02*
X152908000Y-95250000D01*
X152273000Y-97790000D02*
X152273000Y-95885000D01*
X151638000Y-98425000D02*
X152273000Y-97790000D01*
X201930000Y-136398000D02*
X200898000Y-137430000D01*
X200898000Y-137430000D02*
X200604000Y-137430000D01*
X201930000Y-120396000D02*
X201930000Y-136398000D01*
X191262000Y-109728000D02*
X201930000Y-120396000D01*
X179578000Y-109728000D02*
X191262000Y-109728000D01*
X151638000Y-131445000D02*
X151638000Y-120015000D01*
X159004000Y-95250000D02*
X159004000Y-114300000D01*
X158242000Y-94488000D02*
X159004000Y-95250000D01*
X152400000Y-94488000D02*
X158242000Y-94488000D01*
X151638000Y-95250000D02*
X152400000Y-94488000D01*
X151638000Y-97155000D02*
X151638000Y-95250000D01*
X159004000Y-114300000D02*
X163576000Y-114300000D01*
X152908000Y-118745000D02*
X152908000Y-114300000D01*
X151638000Y-120015000D02*
X152908000Y-118745000D01*
X151638000Y-108585000D02*
X152273000Y-109220000D01*
X152273000Y-109220000D02*
X152273000Y-113665000D01*
X152273000Y-113665000D02*
X152908000Y-114300000D01*
X152908000Y-128460500D02*
X152908000Y-138684000D01*
X157734000Y-138938000D02*
X158750000Y-137922000D01*
X153162000Y-138938000D02*
X157734000Y-138938000D01*
X152908000Y-138684000D02*
X153162000Y-138938000D01*
X153035000Y-120015000D02*
X156718000Y-120015000D01*
X152654000Y-120396000D02*
X153035000Y-120015000D01*
X156718000Y-130302000D02*
X156718000Y-126238000D01*
X158623000Y-120015000D02*
X161163000Y-120015000D01*
X161544000Y-121412000D02*
X161544000Y-120396000D01*
X161163000Y-120015000D02*
X161544000Y-120396000D01*
X156972000Y-108966000D02*
X156718000Y-109220000D01*
X156972000Y-102235000D02*
X156972000Y-108966000D01*
X156718000Y-109220000D02*
X156718000Y-120015000D01*
D25*
G36*
X116185557Y-88771783D02*
X116574320Y-89712663D01*
X117293550Y-90433150D01*
X118233750Y-90823555D01*
X119251783Y-90824443D01*
X120192663Y-90435680D01*
X120913150Y-89716450D01*
X121303555Y-88776250D01*
X121303890Y-88392000D01*
X205085888Y-88392000D01*
X205085557Y-88771783D01*
X205474320Y-89712663D01*
X206193550Y-90433150D01*
X207133750Y-90823555D01*
X208151783Y-90824443D01*
X209092663Y-90435680D01*
X209813150Y-89716450D01*
X210203555Y-88776250D01*
X210203890Y-88392000D01*
X211328000Y-88392000D01*
X211328000Y-142748000D01*
X210204112Y-142748000D01*
X210204443Y-142368217D01*
X209815680Y-141427337D01*
X209096450Y-140706850D01*
X208156250Y-140316445D01*
X207138217Y-140315557D01*
X206197337Y-140704320D01*
X205476850Y-141423550D01*
X205086445Y-142363750D01*
X205086110Y-142748000D01*
X121304112Y-142748000D01*
X121304443Y-142368217D01*
X120915680Y-141427337D01*
X120196450Y-140706850D01*
X119256250Y-140316445D01*
X118238217Y-140315557D01*
X117297337Y-140704320D01*
X116576850Y-141423550D01*
X116186445Y-142363750D01*
X116186110Y-142748000D01*
X115697000Y-142748000D01*
X115697000Y-136270355D01*
X126680373Y-136270355D01*
X126946932Y-136849726D01*
X127344550Y-137217842D01*
X127190609Y-137320703D01*
X126859707Y-137815932D01*
X126743510Y-138400094D01*
X126743510Y-138459906D01*
X126859707Y-139044068D01*
X127190609Y-139539297D01*
X127685838Y-139870199D01*
X128270000Y-139986396D01*
X128854162Y-139870199D01*
X129349391Y-139539297D01*
X129680293Y-139044068D01*
X129796490Y-138459906D01*
X129796490Y-138400094D01*
X129680293Y-137815932D01*
X129349391Y-137320703D01*
X129195450Y-137217842D01*
X129593068Y-136849726D01*
X129859627Y-136270355D01*
X129740807Y-136017000D01*
X128397000Y-136017000D01*
X128397000Y-136037000D01*
X128143000Y-136037000D01*
X128143000Y-136017000D01*
X126799193Y-136017000D01*
X126680373Y-136270355D01*
X115697000Y-136270355D01*
X115697000Y-131095750D01*
X126635510Y-131095750D01*
X126635510Y-131935799D01*
X126732183Y-132169188D01*
X126910811Y-132347817D01*
X127073900Y-132415371D01*
X126859707Y-132735932D01*
X126743510Y-133320094D01*
X126743510Y-133379906D01*
X126859707Y-133964068D01*
X127190609Y-134459297D01*
X127344550Y-134562158D01*
X126946932Y-134930274D01*
X126680373Y-135509645D01*
X126799193Y-135763000D01*
X128143000Y-135763000D01*
X128143000Y-135743000D01*
X128397000Y-135743000D01*
X128397000Y-135763000D01*
X129740807Y-135763000D01*
X129859627Y-135509645D01*
X129593068Y-134930274D01*
X129195450Y-134562158D01*
X129349391Y-134459297D01*
X129680293Y-133964068D01*
X129796490Y-133379906D01*
X129796490Y-133320094D01*
X129680293Y-132735932D01*
X129466100Y-132415371D01*
X129629189Y-132347817D01*
X129807817Y-132169188D01*
X129904490Y-131935799D01*
X129904490Y-131095750D01*
X129745740Y-130937000D01*
X128397000Y-130937000D01*
X128397000Y-130957000D01*
X128143000Y-130957000D01*
X128143000Y-130937000D01*
X126794260Y-130937000D01*
X126635510Y-131095750D01*
X115697000Y-131095750D01*
X115697000Y-129684201D01*
X126635510Y-129684201D01*
X126635510Y-130524250D01*
X126794260Y-130683000D01*
X128143000Y-130683000D01*
X128143000Y-129334260D01*
X128397000Y-129334260D01*
X128397000Y-130683000D01*
X129745740Y-130683000D01*
X129904490Y-130524250D01*
X129904490Y-129684201D01*
X129807817Y-129450812D01*
X129629189Y-129272183D01*
X129395800Y-129175510D01*
X128555750Y-129175510D01*
X128397000Y-129334260D01*
X128143000Y-129334260D01*
X127984250Y-129175510D01*
X127144200Y-129175510D01*
X126910811Y-129272183D01*
X126732183Y-129450812D01*
X126635510Y-129684201D01*
X115697000Y-129684201D01*
X115697000Y-125757740D01*
X117787883Y-125757740D01*
X117850835Y-126074219D01*
X118030106Y-126342517D01*
X118298404Y-126521788D01*
X118614883Y-126584740D01*
X119870797Y-126584740D01*
X120187276Y-126521788D01*
X120455574Y-126342517D01*
X120634845Y-126074219D01*
X120697797Y-125757740D01*
X122999883Y-125757740D01*
X123062835Y-126074219D01*
X123242106Y-126342517D01*
X123510404Y-126521788D01*
X123826883Y-126584740D01*
X125082797Y-126584740D01*
X125399276Y-126521788D01*
X125667574Y-126342517D01*
X125846845Y-126074219D01*
X125909797Y-125757740D01*
X125846845Y-125441261D01*
X125667574Y-125172963D01*
X125399276Y-124993692D01*
X125082797Y-124930740D01*
X123826883Y-124930740D01*
X123510404Y-124993692D01*
X123242106Y-125172963D01*
X123062835Y-125441261D01*
X122999883Y-125757740D01*
X120697797Y-125757740D01*
X120634845Y-125441261D01*
X120455574Y-125172963D01*
X120187276Y-124993692D01*
X119870797Y-124930740D01*
X118614883Y-124930740D01*
X118298404Y-124993692D01*
X118030106Y-125172963D01*
X117850835Y-125441261D01*
X117787883Y-125757740D01*
X115697000Y-125757740D01*
X115697000Y-115597740D01*
X117787883Y-115597740D01*
X117850835Y-115914219D01*
X118030106Y-116182517D01*
X118298404Y-116361788D01*
X118614883Y-116424740D01*
X119870797Y-116424740D01*
X120187276Y-116361788D01*
X120455574Y-116182517D01*
X120634845Y-115914219D01*
X120697797Y-115597740D01*
X122999883Y-115597740D01*
X123062835Y-115914219D01*
X123242106Y-116182517D01*
X123510404Y-116361788D01*
X123826883Y-116424740D01*
X125082797Y-116424740D01*
X125399276Y-116361788D01*
X125667574Y-116182517D01*
X125846845Y-115914219D01*
X125909797Y-115597740D01*
X125846845Y-115281261D01*
X125667574Y-115012963D01*
X125399276Y-114833692D01*
X125082797Y-114770740D01*
X123826883Y-114770740D01*
X123510404Y-114833692D01*
X123242106Y-115012963D01*
X123062835Y-115281261D01*
X122999883Y-115597740D01*
X120697797Y-115597740D01*
X120634845Y-115281261D01*
X120455574Y-115012963D01*
X120187276Y-114833692D01*
X119870797Y-114770740D01*
X118614883Y-114770740D01*
X118298404Y-114833692D01*
X118030106Y-115012963D01*
X117850835Y-115281261D01*
X117787883Y-115597740D01*
X115697000Y-115597740D01*
X115697000Y-105437740D01*
X117787883Y-105437740D01*
X117850835Y-105754219D01*
X118030106Y-106022517D01*
X118298404Y-106201788D01*
X118614883Y-106264740D01*
X119870797Y-106264740D01*
X120187276Y-106201788D01*
X120455574Y-106022517D01*
X120634845Y-105754219D01*
X120697797Y-105437740D01*
X122999883Y-105437740D01*
X123062835Y-105754219D01*
X123242106Y-106022517D01*
X123510404Y-106201788D01*
X123826883Y-106264740D01*
X125082797Y-106264740D01*
X125399276Y-106201788D01*
X125667574Y-106022517D01*
X125846845Y-105754219D01*
X125909797Y-105437740D01*
X125846845Y-105121261D01*
X125667574Y-104852963D01*
X125399276Y-104673692D01*
X125082797Y-104610740D01*
X123826883Y-104610740D01*
X123510404Y-104673692D01*
X123242106Y-104852963D01*
X123062835Y-105121261D01*
X122999883Y-105437740D01*
X120697797Y-105437740D01*
X120634845Y-105121261D01*
X120455574Y-104852963D01*
X120187276Y-104673692D01*
X119870797Y-104610740D01*
X118614883Y-104610740D01*
X118298404Y-104673692D01*
X118030106Y-104852963D01*
X117850835Y-105121261D01*
X117787883Y-105437740D01*
X115697000Y-105437740D01*
X115697000Y-97318779D01*
X150810857Y-97318779D01*
X150936495Y-97622846D01*
X151103445Y-97790088D01*
X150937312Y-97955930D01*
X150811144Y-98259778D01*
X150810857Y-98588779D01*
X150936495Y-98892846D01*
X151168930Y-99125688D01*
X151472778Y-99251856D01*
X151801779Y-99252143D01*
X152105846Y-99126505D01*
X152338688Y-98894070D01*
X152464856Y-98590222D01*
X152464917Y-98520150D01*
X152734031Y-98251036D01*
X152734034Y-98251034D01*
X152875369Y-98039510D01*
X152875370Y-98039509D01*
X152925001Y-97790000D01*
X152925000Y-97789995D01*
X152925000Y-96155068D01*
X153178067Y-95902000D01*
X157209932Y-95902000D01*
X157336000Y-96028067D01*
X157336000Y-101490683D01*
X157137222Y-101408144D01*
X156808221Y-101407857D01*
X156504154Y-101533495D01*
X156271312Y-101765930D01*
X156145144Y-102069778D01*
X156144857Y-102398779D01*
X156270495Y-102702846D01*
X156320000Y-102752438D01*
X156320000Y-108489635D01*
X156250154Y-108518495D01*
X156017312Y-108750930D01*
X155891144Y-109054778D01*
X155890857Y-109383779D01*
X156016495Y-109687846D01*
X156066000Y-109737438D01*
X156066000Y-119363000D01*
X153212067Y-119363000D01*
X153369031Y-119206036D01*
X153369034Y-119206034D01*
X153510369Y-118994510D01*
X153560000Y-118745000D01*
X153560000Y-114817673D01*
X153608688Y-114769070D01*
X153734856Y-114465222D01*
X153735143Y-114136221D01*
X153609505Y-113832154D01*
X153377070Y-113599312D01*
X153073222Y-113473144D01*
X153003150Y-113473083D01*
X152925000Y-113394932D01*
X152925000Y-109220005D01*
X152925001Y-109220000D01*
X152875370Y-108970491D01*
X152784510Y-108834509D01*
X152734034Y-108758966D01*
X152734031Y-108758964D01*
X152465083Y-108490016D01*
X152465143Y-108421221D01*
X152339505Y-108117154D01*
X152107070Y-107884312D01*
X151803222Y-107758144D01*
X151474221Y-107757857D01*
X151170154Y-107883495D01*
X150937312Y-108115930D01*
X150811144Y-108419778D01*
X150810857Y-108748779D01*
X150936495Y-109052846D01*
X151168930Y-109285688D01*
X151472778Y-109411856D01*
X151542850Y-109411917D01*
X151621000Y-109490067D01*
X151621000Y-113664995D01*
X151620999Y-113665000D01*
X151638518Y-113753070D01*
X151670631Y-113914510D01*
X151761490Y-114050491D01*
X151811966Y-114126034D01*
X152080917Y-114394985D01*
X152080857Y-114463779D01*
X152206495Y-114767846D01*
X152256000Y-114817438D01*
X152256000Y-118474933D01*
X151543015Y-119187917D01*
X151474221Y-119187857D01*
X151170154Y-119313495D01*
X150937312Y-119545930D01*
X150811144Y-119849778D01*
X150810857Y-120178779D01*
X150936495Y-120482846D01*
X150986000Y-120532438D01*
X150986000Y-130927327D01*
X150937312Y-130975930D01*
X150811144Y-131279778D01*
X150810857Y-131608779D01*
X150936495Y-131912846D01*
X151103445Y-132080088D01*
X150937312Y-132245930D01*
X150811144Y-132549778D01*
X150810857Y-132878779D01*
X150936495Y-133182846D01*
X151168930Y-133415688D01*
X151472778Y-133541856D01*
X151801779Y-133542143D01*
X152105846Y-133416505D01*
X152189390Y-133333107D01*
X152227113Y-133325604D01*
X152256000Y-133319857D01*
X152256000Y-138683995D01*
X152255999Y-138684000D01*
X152294328Y-138876688D01*
X152305631Y-138933510D01*
X152352158Y-139003143D01*
X152446966Y-139145034D01*
X152700964Y-139399031D01*
X152700966Y-139399034D01*
X152912490Y-139540369D01*
X153162000Y-139590000D01*
X157733995Y-139590000D01*
X157734000Y-139590001D01*
X157942113Y-139548604D01*
X157983510Y-139540369D01*
X158195034Y-139399034D01*
X158844985Y-138749083D01*
X158913779Y-138749143D01*
X159217846Y-138623505D01*
X159450688Y-138391070D01*
X159576856Y-138087222D01*
X159577143Y-137758221D01*
X159451505Y-137454154D01*
X159219070Y-137221312D01*
X158915222Y-137095144D01*
X158640000Y-137094904D01*
X158640000Y-136830000D01*
X166446676Y-136830000D01*
X166446676Y-138030000D01*
X166483423Y-138225294D01*
X166598842Y-138404660D01*
X166774951Y-138524990D01*
X166984000Y-138567324D01*
X168184000Y-138567324D01*
X168379294Y-138530577D01*
X168558660Y-138415158D01*
X168678990Y-138239049D01*
X168721324Y-138030000D01*
X168721324Y-137653191D01*
X168996805Y-137653191D01*
X169168019Y-138067560D01*
X169484772Y-138384867D01*
X169898842Y-138556804D01*
X170347191Y-138557195D01*
X170761560Y-138385981D01*
X171078867Y-138069228D01*
X171250804Y-137655158D01*
X171250805Y-137653191D01*
X171536805Y-137653191D01*
X171708019Y-138067560D01*
X172024772Y-138384867D01*
X172438842Y-138556804D01*
X172887191Y-138557195D01*
X173301560Y-138385981D01*
X173618867Y-138069228D01*
X173790804Y-137655158D01*
X173790805Y-137653191D01*
X174076805Y-137653191D01*
X174248019Y-138067560D01*
X174564772Y-138384867D01*
X174978842Y-138556804D01*
X175427191Y-138557195D01*
X175841560Y-138385981D01*
X176158867Y-138069228D01*
X176330804Y-137655158D01*
X176330805Y-137653191D01*
X176616805Y-137653191D01*
X176788019Y-138067560D01*
X177104772Y-138384867D01*
X177518842Y-138556804D01*
X177967191Y-138557195D01*
X178381560Y-138385981D01*
X178474969Y-138292735D01*
X179600870Y-138292735D01*
X179650383Y-138518164D01*
X180115036Y-138677807D01*
X180605413Y-138647482D01*
X180917617Y-138518164D01*
X180967130Y-138292735D01*
X180284000Y-137609605D01*
X179600870Y-138292735D01*
X178474969Y-138292735D01*
X178698867Y-138069228D01*
X178870804Y-137655158D01*
X178871147Y-137261036D01*
X179036193Y-137261036D01*
X179066518Y-137751413D01*
X179195836Y-138063617D01*
X179421265Y-138113130D01*
X180104395Y-137430000D01*
X180463605Y-137430000D01*
X181146735Y-138113130D01*
X181372164Y-138063617D01*
X181513175Y-137653191D01*
X181696805Y-137653191D01*
X181868019Y-138067560D01*
X182184772Y-138384867D01*
X182598842Y-138556804D01*
X183047191Y-138557195D01*
X183461560Y-138385981D01*
X183778867Y-138069228D01*
X183950804Y-137655158D01*
X183950805Y-137653191D01*
X184236805Y-137653191D01*
X184408019Y-138067560D01*
X184724772Y-138384867D01*
X185138842Y-138556804D01*
X185587191Y-138557195D01*
X186001560Y-138385981D01*
X186318867Y-138069228D01*
X186490804Y-137655158D01*
X186490805Y-137653191D01*
X186776805Y-137653191D01*
X186948019Y-138067560D01*
X187264772Y-138384867D01*
X187678842Y-138556804D01*
X188127191Y-138557195D01*
X188541560Y-138385981D01*
X188858867Y-138069228D01*
X189030804Y-137655158D01*
X189030805Y-137653191D01*
X189316805Y-137653191D01*
X189488019Y-138067560D01*
X189804772Y-138384867D01*
X190218842Y-138556804D01*
X190667191Y-138557195D01*
X191081560Y-138385981D01*
X191398867Y-138069228D01*
X191570804Y-137655158D01*
X191570805Y-137653191D01*
X191856805Y-137653191D01*
X192028019Y-138067560D01*
X192344772Y-138384867D01*
X192758842Y-138556804D01*
X193207191Y-138557195D01*
X193621560Y-138385981D01*
X193938867Y-138069228D01*
X194110804Y-137655158D01*
X194111195Y-137206809D01*
X193939981Y-136792440D01*
X193623228Y-136475133D01*
X193209158Y-136303196D01*
X192760809Y-136302805D01*
X192346440Y-136474019D01*
X192029133Y-136790772D01*
X191857196Y-137204842D01*
X191856805Y-137653191D01*
X191570805Y-137653191D01*
X191571195Y-137206809D01*
X191399981Y-136792440D01*
X191083228Y-136475133D01*
X190669158Y-136303196D01*
X190220809Y-136302805D01*
X189806440Y-136474019D01*
X189489133Y-136790772D01*
X189317196Y-137204842D01*
X189316805Y-137653191D01*
X189030805Y-137653191D01*
X189031195Y-137206809D01*
X188859981Y-136792440D01*
X188543228Y-136475133D01*
X188129158Y-136303196D01*
X187680809Y-136302805D01*
X187266440Y-136474019D01*
X186949133Y-136790772D01*
X186777196Y-137204842D01*
X186776805Y-137653191D01*
X186490805Y-137653191D01*
X186491195Y-137206809D01*
X186319981Y-136792440D01*
X186003228Y-136475133D01*
X185589158Y-136303196D01*
X185140809Y-136302805D01*
X184726440Y-136474019D01*
X184409133Y-136790772D01*
X184237196Y-137204842D01*
X184236805Y-137653191D01*
X183950805Y-137653191D01*
X183951195Y-137206809D01*
X183779981Y-136792440D01*
X183463228Y-136475133D01*
X183049158Y-136303196D01*
X182600809Y-136302805D01*
X182186440Y-136474019D01*
X181869133Y-136790772D01*
X181697196Y-137204842D01*
X181696805Y-137653191D01*
X181513175Y-137653191D01*
X181531807Y-137598964D01*
X181501482Y-137108587D01*
X181372164Y-136796383D01*
X181146735Y-136746870D01*
X180463605Y-137430000D01*
X180104395Y-137430000D01*
X179421265Y-136746870D01*
X179195836Y-136796383D01*
X179036193Y-137261036D01*
X178871147Y-137261036D01*
X178871195Y-137206809D01*
X178699981Y-136792440D01*
X178475200Y-136567265D01*
X179600870Y-136567265D01*
X180284000Y-137250395D01*
X180967130Y-136567265D01*
X180917617Y-136341836D01*
X180452964Y-136182193D01*
X179962587Y-136212518D01*
X179650383Y-136341836D01*
X179600870Y-136567265D01*
X178475200Y-136567265D01*
X178383228Y-136475133D01*
X177969158Y-136303196D01*
X177520809Y-136302805D01*
X177106440Y-136474019D01*
X176789133Y-136790772D01*
X176617196Y-137204842D01*
X176616805Y-137653191D01*
X176330805Y-137653191D01*
X176331195Y-137206809D01*
X176159981Y-136792440D01*
X175843228Y-136475133D01*
X175429158Y-136303196D01*
X174980809Y-136302805D01*
X174566440Y-136474019D01*
X174249133Y-136790772D01*
X174077196Y-137204842D01*
X174076805Y-137653191D01*
X173790805Y-137653191D01*
X173791195Y-137206809D01*
X173619981Y-136792440D01*
X173303228Y-136475133D01*
X172889158Y-136303196D01*
X172440809Y-136302805D01*
X172026440Y-136474019D01*
X171709133Y-136790772D01*
X171537196Y-137204842D01*
X171536805Y-137653191D01*
X171250805Y-137653191D01*
X171251195Y-137206809D01*
X171079981Y-136792440D01*
X170763228Y-136475133D01*
X170349158Y-136303196D01*
X169900809Y-136302805D01*
X169486440Y-136474019D01*
X169169133Y-136790772D01*
X168997196Y-137204842D01*
X168996805Y-137653191D01*
X168721324Y-137653191D01*
X168721324Y-136830000D01*
X168684577Y-136634706D01*
X168569158Y-136455340D01*
X168393049Y-136335010D01*
X168184000Y-136292676D01*
X166984000Y-136292676D01*
X166788706Y-136329423D01*
X166609340Y-136444842D01*
X166489010Y-136620951D01*
X166446676Y-136830000D01*
X158640000Y-136830000D01*
X158640000Y-124476068D01*
X159274068Y-123842000D01*
X161543995Y-123842000D01*
X161544000Y-123842001D01*
X161752113Y-123800604D01*
X161793510Y-123792369D01*
X162005034Y-123651034D01*
X163494876Y-122161191D01*
X166456805Y-122161191D01*
X166628019Y-122575560D01*
X166944772Y-122892867D01*
X167358842Y-123064804D01*
X167807191Y-123065195D01*
X168221560Y-122893981D01*
X168538867Y-122577228D01*
X168710804Y-122163158D01*
X168710805Y-122161191D01*
X168996805Y-122161191D01*
X169168019Y-122575560D01*
X169484772Y-122892867D01*
X169898842Y-123064804D01*
X170347191Y-123065195D01*
X170761560Y-122893981D01*
X171078867Y-122577228D01*
X171250804Y-122163158D01*
X171250805Y-122161191D01*
X171536805Y-122161191D01*
X171708019Y-122575560D01*
X172024772Y-122892867D01*
X172438842Y-123064804D01*
X172887191Y-123065195D01*
X173301560Y-122893981D01*
X173394969Y-122800735D01*
X174520870Y-122800735D01*
X174570383Y-123026164D01*
X175035036Y-123185807D01*
X175525413Y-123155482D01*
X175837617Y-123026164D01*
X175887130Y-122800735D01*
X175204000Y-122117605D01*
X174520870Y-122800735D01*
X173394969Y-122800735D01*
X173618867Y-122577228D01*
X173790804Y-122163158D01*
X173791147Y-121769036D01*
X173956193Y-121769036D01*
X173986518Y-122259413D01*
X174115836Y-122571617D01*
X174341265Y-122621130D01*
X175024395Y-121938000D01*
X175383605Y-121938000D01*
X176066735Y-122621130D01*
X176292164Y-122571617D01*
X176433175Y-122161191D01*
X176616805Y-122161191D01*
X176788019Y-122575560D01*
X177104772Y-122892867D01*
X177518842Y-123064804D01*
X177967191Y-123065195D01*
X178381560Y-122893981D01*
X178698867Y-122577228D01*
X178870804Y-122163158D01*
X178870805Y-122161191D01*
X179156805Y-122161191D01*
X179328019Y-122575560D01*
X179644772Y-122892867D01*
X180058842Y-123064804D01*
X180507191Y-123065195D01*
X180921560Y-122893981D01*
X181238867Y-122577228D01*
X181410804Y-122163158D01*
X181410805Y-122161191D01*
X181696805Y-122161191D01*
X181868019Y-122575560D01*
X182184772Y-122892867D01*
X182598842Y-123064804D01*
X183047191Y-123065195D01*
X183461560Y-122893981D01*
X183778867Y-122577228D01*
X183950804Y-122163158D01*
X183950805Y-122161191D01*
X184236805Y-122161191D01*
X184408019Y-122575560D01*
X184724772Y-122892867D01*
X185138842Y-123064804D01*
X185587191Y-123065195D01*
X186001560Y-122893981D01*
X186318867Y-122577228D01*
X186490804Y-122163158D01*
X186490805Y-122161191D01*
X186776805Y-122161191D01*
X186948019Y-122575560D01*
X187264772Y-122892867D01*
X187678842Y-123064804D01*
X188127191Y-123065195D01*
X188541560Y-122893981D01*
X188858867Y-122577228D01*
X189030804Y-122163158D01*
X189030805Y-122161191D01*
X189316805Y-122161191D01*
X189488019Y-122575560D01*
X189804772Y-122892867D01*
X190218842Y-123064804D01*
X190667191Y-123065195D01*
X191081560Y-122893981D01*
X191398867Y-122577228D01*
X191570804Y-122163158D01*
X191571195Y-121714809D01*
X191399981Y-121300440D01*
X191083228Y-120983133D01*
X190669158Y-120811196D01*
X190220809Y-120810805D01*
X189806440Y-120982019D01*
X189489133Y-121298772D01*
X189317196Y-121712842D01*
X189316805Y-122161191D01*
X189030805Y-122161191D01*
X189031195Y-121714809D01*
X188859981Y-121300440D01*
X188543228Y-120983133D01*
X188129158Y-120811196D01*
X187680809Y-120810805D01*
X187266440Y-120982019D01*
X186949133Y-121298772D01*
X186777196Y-121712842D01*
X186776805Y-122161191D01*
X186490805Y-122161191D01*
X186491195Y-121714809D01*
X186319981Y-121300440D01*
X186003228Y-120983133D01*
X185589158Y-120811196D01*
X185140809Y-120810805D01*
X184726440Y-120982019D01*
X184409133Y-121298772D01*
X184237196Y-121712842D01*
X184236805Y-122161191D01*
X183950805Y-122161191D01*
X183951195Y-121714809D01*
X183779981Y-121300440D01*
X183463228Y-120983133D01*
X183049158Y-120811196D01*
X182600809Y-120810805D01*
X182186440Y-120982019D01*
X181869133Y-121298772D01*
X181697196Y-121712842D01*
X181696805Y-122161191D01*
X181410805Y-122161191D01*
X181411195Y-121714809D01*
X181239981Y-121300440D01*
X180923228Y-120983133D01*
X180509158Y-120811196D01*
X180060809Y-120810805D01*
X179646440Y-120982019D01*
X179329133Y-121298772D01*
X179157196Y-121712842D01*
X179156805Y-122161191D01*
X178870805Y-122161191D01*
X178871195Y-121714809D01*
X178699981Y-121300440D01*
X178383228Y-120983133D01*
X177969158Y-120811196D01*
X177520809Y-120810805D01*
X177106440Y-120982019D01*
X176789133Y-121298772D01*
X176617196Y-121712842D01*
X176616805Y-122161191D01*
X176433175Y-122161191D01*
X176451807Y-122106964D01*
X176421482Y-121616587D01*
X176292164Y-121304383D01*
X176066735Y-121254870D01*
X175383605Y-121938000D01*
X175024395Y-121938000D01*
X174341265Y-121254870D01*
X174115836Y-121304383D01*
X173956193Y-121769036D01*
X173791147Y-121769036D01*
X173791195Y-121714809D01*
X173619981Y-121300440D01*
X173395200Y-121075265D01*
X174520870Y-121075265D01*
X175204000Y-121758395D01*
X175887130Y-121075265D01*
X175837617Y-120849836D01*
X175372964Y-120690193D01*
X174882587Y-120720518D01*
X174570383Y-120849836D01*
X174520870Y-121075265D01*
X173395200Y-121075265D01*
X173303228Y-120983133D01*
X172889158Y-120811196D01*
X172440809Y-120810805D01*
X172026440Y-120982019D01*
X171709133Y-121298772D01*
X171537196Y-121712842D01*
X171536805Y-122161191D01*
X171250805Y-122161191D01*
X171251195Y-121714809D01*
X171079981Y-121300440D01*
X170763228Y-120983133D01*
X170349158Y-120811196D01*
X169900809Y-120810805D01*
X169486440Y-120982019D01*
X169169133Y-121298772D01*
X168997196Y-121712842D01*
X168996805Y-122161191D01*
X168710805Y-122161191D01*
X168711195Y-121714809D01*
X168539981Y-121300440D01*
X168223228Y-120983133D01*
X167809158Y-120811196D01*
X167360809Y-120810805D01*
X166946440Y-120982019D01*
X166629133Y-121298772D01*
X166457196Y-121712842D01*
X166456805Y-122161191D01*
X163494876Y-122161191D01*
X163783031Y-121873036D01*
X163783034Y-121873034D01*
X163924369Y-121661510D01*
X163924370Y-121661509D01*
X163974001Y-121412000D01*
X163974000Y-121411995D01*
X163974000Y-121237568D01*
X166083984Y-119127583D01*
X166152779Y-119127643D01*
X166456846Y-119002005D01*
X166689688Y-118769570D01*
X166815856Y-118465722D01*
X166816143Y-118136721D01*
X166690505Y-117832654D01*
X166458070Y-117599812D01*
X166154222Y-117473644D01*
X165825221Y-117473357D01*
X165521154Y-117598995D01*
X165288312Y-117831430D01*
X165162144Y-118135278D01*
X165162083Y-118205350D01*
X162860966Y-120506466D01*
X162719631Y-120717990D01*
X162719631Y-120717991D01*
X162669999Y-120967500D01*
X162670000Y-120967505D01*
X162670000Y-121141933D01*
X162370975Y-121440958D01*
X162371143Y-121248221D01*
X162245505Y-120944154D01*
X162196000Y-120894562D01*
X162196000Y-120396000D01*
X162146369Y-120146490D01*
X162005034Y-119934966D01*
X162005031Y-119934964D01*
X161624034Y-119553966D01*
X161602580Y-119539631D01*
X161412510Y-119412631D01*
X161371113Y-119404396D01*
X161163000Y-119362999D01*
X161162995Y-119363000D01*
X159140673Y-119363000D01*
X159092070Y-119314312D01*
X158788222Y-119188144D01*
X158640000Y-119188015D01*
X158640000Y-117492000D01*
X163566327Y-117492000D01*
X163614930Y-117540688D01*
X163918778Y-117666856D01*
X164247779Y-117667143D01*
X164551846Y-117541505D01*
X164784688Y-117309070D01*
X164910856Y-117005222D01*
X164911143Y-116676221D01*
X164785505Y-116372154D01*
X164553070Y-116139312D01*
X164249222Y-116013144D01*
X163920221Y-116012857D01*
X163616154Y-116138495D01*
X163566562Y-116188000D01*
X158640000Y-116188000D01*
X158640000Y-115044317D01*
X158838778Y-115126856D01*
X159167779Y-115127143D01*
X159471846Y-115001505D01*
X159521438Y-114952000D01*
X163058327Y-114952000D01*
X163106930Y-115000688D01*
X163410778Y-115126856D01*
X163739779Y-115127143D01*
X164043846Y-115001505D01*
X164276688Y-114769070D01*
X164402856Y-114465222D01*
X164403143Y-114136221D01*
X164277505Y-113832154D01*
X164045070Y-113599312D01*
X163741222Y-113473144D01*
X163412221Y-113472857D01*
X163108154Y-113598495D01*
X163058562Y-113648000D01*
X159656000Y-113648000D01*
X159656000Y-113447779D01*
X178750857Y-113447779D01*
X178876495Y-113751846D01*
X179108930Y-113984688D01*
X179412778Y-114110856D01*
X179741779Y-114111143D01*
X180045846Y-113985505D01*
X180095438Y-113936000D01*
X187181932Y-113936000D01*
X193658000Y-120412067D01*
X193658000Y-121017966D01*
X193623228Y-120983133D01*
X193209158Y-120811196D01*
X192760809Y-120810805D01*
X192346440Y-120982019D01*
X192029133Y-121298772D01*
X191857196Y-121712842D01*
X191856805Y-122161191D01*
X192028019Y-122575560D01*
X192344772Y-122892867D01*
X192758842Y-123064804D01*
X193207191Y-123065195D01*
X193621560Y-122893981D01*
X193658000Y-122857605D01*
X193658000Y-133857995D01*
X193657999Y-133858000D01*
X193679098Y-133964068D01*
X193707631Y-134107510D01*
X193836503Y-134300381D01*
X193848966Y-134319034D01*
X195892755Y-136362823D01*
X195749158Y-136303196D01*
X195300809Y-136302805D01*
X194886440Y-136474019D01*
X194569133Y-136790772D01*
X194397196Y-137204842D01*
X194396805Y-137653191D01*
X194568019Y-138067560D01*
X194884772Y-138384867D01*
X195298842Y-138556804D01*
X195747191Y-138557195D01*
X196161560Y-138385981D01*
X196478867Y-138069228D01*
X196650804Y-137655158D01*
X196651195Y-137206809D01*
X196590959Y-137061027D01*
X196937020Y-137407088D01*
X196936805Y-137653191D01*
X197108019Y-138067560D01*
X197424772Y-138384867D01*
X197838842Y-138556804D01*
X198287191Y-138557195D01*
X198701560Y-138385981D01*
X199018867Y-138069228D01*
X199190804Y-137655158D01*
X199191195Y-137206809D01*
X199019981Y-136792440D01*
X198703228Y-136475133D01*
X198289158Y-136303196D01*
X197840809Y-136302805D01*
X197724805Y-136350737D01*
X194962000Y-133587932D01*
X194962000Y-122924935D01*
X195298842Y-123064804D01*
X195747191Y-123065195D01*
X196161560Y-122893981D01*
X196478867Y-122577228D01*
X196650804Y-122163158D01*
X196650805Y-122161191D01*
X196936805Y-122161191D01*
X197108019Y-122575560D01*
X197424772Y-122892867D01*
X197838842Y-123064804D01*
X198287191Y-123065195D01*
X198701560Y-122893981D01*
X199018867Y-122577228D01*
X199190804Y-122163158D01*
X199191195Y-121714809D01*
X199019981Y-121300440D01*
X198703228Y-120983133D01*
X198289158Y-120811196D01*
X197840809Y-120810805D01*
X197426440Y-120982019D01*
X197109133Y-121298772D01*
X196937196Y-121712842D01*
X196936805Y-122161191D01*
X196650805Y-122161191D01*
X196651195Y-121714809D01*
X196479981Y-121300440D01*
X196163228Y-120983133D01*
X195749158Y-120811196D01*
X195300809Y-120810805D01*
X194962000Y-120950798D01*
X194962000Y-120142005D01*
X194962001Y-120142000D01*
X194912370Y-119892491D01*
X194827511Y-119765490D01*
X194771034Y-119680966D01*
X194771031Y-119680964D01*
X187913034Y-112822966D01*
X187842744Y-112776000D01*
X187701510Y-112681631D01*
X187660113Y-112673396D01*
X187452000Y-112631999D01*
X187451995Y-112632000D01*
X180095673Y-112632000D01*
X180047070Y-112583312D01*
X179743222Y-112457144D01*
X179414221Y-112456857D01*
X179110154Y-112582495D01*
X178877312Y-112814930D01*
X178751144Y-113118778D01*
X178750857Y-113447779D01*
X159656000Y-113447779D01*
X159656000Y-109891779D01*
X178750857Y-109891779D01*
X178876495Y-110195846D01*
X179108930Y-110428688D01*
X179412778Y-110554856D01*
X179741779Y-110555143D01*
X180045846Y-110429505D01*
X180095438Y-110380000D01*
X190991932Y-110380000D01*
X201278000Y-120666067D01*
X201278000Y-121017966D01*
X201243228Y-120983133D01*
X200829158Y-120811196D01*
X200380809Y-120810805D01*
X199966440Y-120982019D01*
X199649133Y-121298772D01*
X199477196Y-121712842D01*
X199476805Y-122161191D01*
X199648019Y-122575560D01*
X199964772Y-122892867D01*
X200378842Y-123064804D01*
X200827191Y-123065195D01*
X201241560Y-122893981D01*
X201278000Y-122857605D01*
X201278000Y-136127933D01*
X201022467Y-136383465D01*
X200829158Y-136303196D01*
X200380809Y-136302805D01*
X199966440Y-136474019D01*
X199649133Y-136790772D01*
X199477196Y-137204842D01*
X199476805Y-137653191D01*
X199648019Y-138067560D01*
X199964772Y-138384867D01*
X200378842Y-138556804D01*
X200827191Y-138557195D01*
X201241560Y-138385981D01*
X201558867Y-138069228D01*
X201730804Y-137655158D01*
X201730923Y-137519145D01*
X202017172Y-137232896D01*
X202016805Y-137653191D01*
X202188019Y-138067560D01*
X202504772Y-138384867D01*
X202918842Y-138556804D01*
X203367191Y-138557195D01*
X203781560Y-138385981D01*
X204098867Y-138069228D01*
X204270804Y-137655158D01*
X204270805Y-137653191D01*
X204556805Y-137653191D01*
X204728019Y-138067560D01*
X205044772Y-138384867D01*
X205458842Y-138556804D01*
X205907191Y-138557195D01*
X206321560Y-138385981D01*
X206638867Y-138069228D01*
X206810804Y-137655158D01*
X206810805Y-137653191D01*
X207096805Y-137653191D01*
X207268019Y-138067560D01*
X207584772Y-138384867D01*
X207998842Y-138556804D01*
X208447191Y-138557195D01*
X208861560Y-138385981D01*
X209178867Y-138069228D01*
X209350804Y-137655158D01*
X209351195Y-137206809D01*
X209179981Y-136792440D01*
X208863228Y-136475133D01*
X208449158Y-136303196D01*
X208000809Y-136302805D01*
X207586440Y-136474019D01*
X207269133Y-136790772D01*
X207097196Y-137204842D01*
X207096805Y-137653191D01*
X206810805Y-137653191D01*
X206811195Y-137206809D01*
X206639981Y-136792440D01*
X206323228Y-136475133D01*
X205909158Y-136303196D01*
X205460809Y-136302805D01*
X205046440Y-136474019D01*
X204729133Y-136790772D01*
X204557196Y-137204842D01*
X204556805Y-137653191D01*
X204270805Y-137653191D01*
X204271195Y-137206809D01*
X204099981Y-136792440D01*
X203783228Y-136475133D01*
X203369158Y-136303196D01*
X202920809Y-136302805D01*
X202572291Y-136446810D01*
X202582000Y-136398000D01*
X202582000Y-122924935D01*
X202918842Y-123064804D01*
X203367191Y-123065195D01*
X203781560Y-122893981D01*
X204098867Y-122577228D01*
X204270804Y-122163158D01*
X204270805Y-122161191D01*
X204556805Y-122161191D01*
X204728019Y-122575560D01*
X205044772Y-122892867D01*
X205458842Y-123064804D01*
X205907191Y-123065195D01*
X206321560Y-122893981D01*
X206638867Y-122577228D01*
X206810804Y-122163158D01*
X206810805Y-122161191D01*
X207096805Y-122161191D01*
X207268019Y-122575560D01*
X207584772Y-122892867D01*
X207998842Y-123064804D01*
X208447191Y-123065195D01*
X208861560Y-122893981D01*
X209178867Y-122577228D01*
X209350804Y-122163158D01*
X209351195Y-121714809D01*
X209179981Y-121300440D01*
X208863228Y-120983133D01*
X208449158Y-120811196D01*
X208000809Y-120810805D01*
X207586440Y-120982019D01*
X207269133Y-121298772D01*
X207097196Y-121712842D01*
X207096805Y-122161191D01*
X206810805Y-122161191D01*
X206811195Y-121714809D01*
X206639981Y-121300440D01*
X206323228Y-120983133D01*
X205909158Y-120811196D01*
X205460809Y-120810805D01*
X205046440Y-120982019D01*
X204729133Y-121298772D01*
X204557196Y-121712842D01*
X204556805Y-122161191D01*
X204270805Y-122161191D01*
X204271195Y-121714809D01*
X204099981Y-121300440D01*
X203783228Y-120983133D01*
X203369158Y-120811196D01*
X202920809Y-120810805D01*
X202582000Y-120950798D01*
X202582000Y-120396000D01*
X202532369Y-120146490D01*
X202391034Y-119934966D01*
X202391031Y-119934964D01*
X201304376Y-118848308D01*
X205228727Y-118848308D01*
X205468305Y-119428132D01*
X205911535Y-119872136D01*
X206490939Y-120112725D01*
X207118308Y-120113273D01*
X207698132Y-119873695D01*
X208142136Y-119430465D01*
X208382725Y-118851061D01*
X208383166Y-118346032D01*
X208500794Y-118463865D01*
X209015901Y-118677756D01*
X209573652Y-118678243D01*
X210089132Y-118465251D01*
X210483865Y-118071206D01*
X210697756Y-117556099D01*
X210698243Y-116998348D01*
X210485251Y-116482868D01*
X210091206Y-116088135D01*
X209576099Y-115874244D01*
X209018348Y-115873757D01*
X208502868Y-116086749D01*
X208108135Y-116480794D01*
X207894244Y-116995901D01*
X207893897Y-117393634D01*
X207700465Y-117199864D01*
X207121061Y-116959275D01*
X206493692Y-116958727D01*
X205913868Y-117198305D01*
X205469864Y-117641535D01*
X205229275Y-118220939D01*
X205228727Y-118848308D01*
X201304376Y-118848308D01*
X196294128Y-113838060D01*
X208413545Y-113838060D01*
X208496884Y-114091953D01*
X209061306Y-114297590D01*
X209661458Y-114271579D01*
X210095116Y-114091953D01*
X210178455Y-113838060D01*
X209296000Y-112955605D01*
X208413545Y-113838060D01*
X196294128Y-113838060D01*
X194294376Y-111838308D01*
X205228727Y-111838308D01*
X205468305Y-112418132D01*
X205911535Y-112862136D01*
X206490939Y-113102725D01*
X207118308Y-113103273D01*
X207698132Y-112863695D01*
X207784640Y-112777338D01*
X207800421Y-113141458D01*
X207980047Y-113575116D01*
X208233940Y-113658455D01*
X209116395Y-112776000D01*
X209475605Y-112776000D01*
X210358060Y-113658455D01*
X210611953Y-113575116D01*
X210817590Y-113010694D01*
X210791579Y-112410542D01*
X210611953Y-111976884D01*
X210358060Y-111893545D01*
X209475605Y-112776000D01*
X209116395Y-112776000D01*
X209102253Y-112761858D01*
X209281858Y-112582253D01*
X209296000Y-112596395D01*
X210178455Y-111713940D01*
X210095116Y-111460047D01*
X209530694Y-111254410D01*
X208930542Y-111280421D01*
X208496884Y-111460047D01*
X208413546Y-111713938D01*
X208382863Y-111683255D01*
X208383273Y-111213692D01*
X208143695Y-110633868D01*
X207700465Y-110189864D01*
X207121061Y-109949275D01*
X206493692Y-109948727D01*
X205913868Y-110188305D01*
X205469864Y-110631535D01*
X205229275Y-111210939D01*
X205228727Y-111838308D01*
X194294376Y-111838308D01*
X191723034Y-109266966D01*
X191646024Y-109215510D01*
X191511510Y-109125631D01*
X191470113Y-109117396D01*
X191262000Y-109075999D01*
X191261995Y-109076000D01*
X180095673Y-109076000D01*
X180047070Y-109027312D01*
X179743222Y-108901144D01*
X179414221Y-108900857D01*
X179110154Y-109026495D01*
X178877312Y-109258930D01*
X178751144Y-109562778D01*
X178750857Y-109891779D01*
X159656000Y-109891779D01*
X159656000Y-105949750D01*
X177789000Y-105949750D01*
X177789000Y-106690310D01*
X177885673Y-106923699D01*
X178064302Y-107102327D01*
X178297691Y-107199000D01*
X179038250Y-107199000D01*
X179197000Y-107040250D01*
X179197000Y-105791000D01*
X177947750Y-105791000D01*
X177789000Y-105949750D01*
X159656000Y-105949750D01*
X159656000Y-104637690D01*
X177789000Y-104637690D01*
X177789000Y-105378250D01*
X177947750Y-105537000D01*
X179197000Y-105537000D01*
X179197000Y-104287750D01*
X179451000Y-104287750D01*
X179451000Y-105537000D01*
X179471000Y-105537000D01*
X179471000Y-105791000D01*
X179451000Y-105791000D01*
X179451000Y-107040250D01*
X179609750Y-107199000D01*
X180350309Y-107199000D01*
X180583698Y-107102327D01*
X180762327Y-106923699D01*
X180857666Y-106693530D01*
X181289954Y-106982376D01*
X181836043Y-107091000D01*
X181891957Y-107091000D01*
X182438046Y-106982376D01*
X182900998Y-106673041D01*
X183134000Y-106324329D01*
X183367002Y-106673041D01*
X183829954Y-106982376D01*
X184376043Y-107091000D01*
X184431957Y-107091000D01*
X184978046Y-106982376D01*
X185440998Y-106673041D01*
X185750333Y-106210089D01*
X185858957Y-105664000D01*
X185750333Y-105117911D01*
X185440998Y-104654959D01*
X184978046Y-104345624D01*
X184431957Y-104237000D01*
X184376043Y-104237000D01*
X183829954Y-104345624D01*
X183367002Y-104654959D01*
X183134000Y-105003671D01*
X182900998Y-104654959D01*
X182438046Y-104345624D01*
X181891957Y-104237000D01*
X181836043Y-104237000D01*
X181289954Y-104345624D01*
X180857666Y-104634470D01*
X180762327Y-104404301D01*
X180583698Y-104225673D01*
X180350309Y-104129000D01*
X179609750Y-104129000D01*
X179451000Y-104287750D01*
X179197000Y-104287750D01*
X179038250Y-104129000D01*
X178297691Y-104129000D01*
X178064302Y-104225673D01*
X177885673Y-104404301D01*
X177789000Y-104637690D01*
X159656000Y-104637690D01*
X159656000Y-102898000D01*
X198880676Y-102898000D01*
X198880676Y-106398000D01*
X198917423Y-106593294D01*
X199032842Y-106772660D01*
X199208951Y-106892990D01*
X199418000Y-106935324D01*
X202918000Y-106935324D01*
X203113294Y-106898577D01*
X203292660Y-106783158D01*
X203412990Y-106607049D01*
X203455324Y-106398000D01*
X203455324Y-104933750D01*
X204783000Y-104933750D01*
X204783000Y-106524310D01*
X204879673Y-106757699D01*
X205058302Y-106936327D01*
X205291691Y-107033000D01*
X206882250Y-107033000D01*
X207041000Y-106874250D01*
X207041000Y-104775000D01*
X207295000Y-104775000D01*
X207295000Y-106874250D01*
X207453750Y-107033000D01*
X209044309Y-107033000D01*
X209277698Y-106936327D01*
X209456327Y-106757699D01*
X209553000Y-106524310D01*
X209553000Y-104933750D01*
X209394250Y-104775000D01*
X207295000Y-104775000D01*
X207041000Y-104775000D01*
X204941750Y-104775000D01*
X204783000Y-104933750D01*
X203455324Y-104933750D01*
X203455324Y-102898000D01*
X203418577Y-102702706D01*
X203303158Y-102523340D01*
X203127049Y-102403010D01*
X202918000Y-102360676D01*
X199418000Y-102360676D01*
X199222706Y-102397423D01*
X199043340Y-102512842D01*
X198923010Y-102688951D01*
X198880676Y-102898000D01*
X159656000Y-102898000D01*
X159656000Y-100233750D01*
X201783000Y-100233750D01*
X201783000Y-101824310D01*
X201879673Y-102057699D01*
X202058302Y-102236327D01*
X202291691Y-102333000D01*
X203882250Y-102333000D01*
X204041000Y-102174250D01*
X204041000Y-100075000D01*
X204295000Y-100075000D01*
X204295000Y-102174250D01*
X204453750Y-102333000D01*
X205122696Y-102333000D01*
X205058302Y-102359673D01*
X204879673Y-102538301D01*
X204783000Y-102771690D01*
X204783000Y-104362250D01*
X204941750Y-104521000D01*
X207041000Y-104521000D01*
X207041000Y-102421750D01*
X207295000Y-102421750D01*
X207295000Y-104521000D01*
X209394250Y-104521000D01*
X209553000Y-104362250D01*
X209553000Y-102771690D01*
X209456327Y-102538301D01*
X209277698Y-102359673D01*
X209044309Y-102263000D01*
X207453750Y-102263000D01*
X207295000Y-102421750D01*
X207041000Y-102421750D01*
X206882250Y-102263000D01*
X206213304Y-102263000D01*
X206277698Y-102236327D01*
X206456327Y-102057699D01*
X206553000Y-101824310D01*
X206553000Y-100233750D01*
X206394250Y-100075000D01*
X204295000Y-100075000D01*
X204041000Y-100075000D01*
X201941750Y-100075000D01*
X201783000Y-100233750D01*
X159656000Y-100233750D01*
X159656000Y-98071690D01*
X201783000Y-98071690D01*
X201783000Y-99662250D01*
X201941750Y-99821000D01*
X204041000Y-99821000D01*
X204041000Y-97721750D01*
X204295000Y-97721750D01*
X204295000Y-99821000D01*
X206394250Y-99821000D01*
X206553000Y-99662250D01*
X206553000Y-98071690D01*
X206456327Y-97838301D01*
X206277698Y-97659673D01*
X206044309Y-97563000D01*
X204453750Y-97563000D01*
X204295000Y-97721750D01*
X204041000Y-97721750D01*
X203882250Y-97563000D01*
X202291691Y-97563000D01*
X202058302Y-97659673D01*
X201879673Y-97838301D01*
X201783000Y-98071690D01*
X159656000Y-98071690D01*
X159656000Y-95250005D01*
X159656001Y-95250000D01*
X159606370Y-95000491D01*
X159559471Y-94930302D01*
X159465034Y-94788966D01*
X159465031Y-94788964D01*
X158703034Y-94026966D01*
X158556961Y-93929364D01*
X158491510Y-93885631D01*
X158450113Y-93877396D01*
X158242000Y-93835999D01*
X158241995Y-93836000D01*
X152400005Y-93836000D01*
X152400000Y-93835999D01*
X152150491Y-93885630D01*
X152150489Y-93885631D01*
X152150490Y-93885631D01*
X151938966Y-94026966D01*
X151938964Y-94026969D01*
X151176966Y-94788966D01*
X151035631Y-95000490D01*
X151035631Y-95000491D01*
X150985999Y-95250000D01*
X150986000Y-95250005D01*
X150986000Y-96637327D01*
X150937312Y-96685930D01*
X150811144Y-96989778D01*
X150810857Y-97318779D01*
X115697000Y-97318779D01*
X115697000Y-95277740D01*
X117787883Y-95277740D01*
X117850835Y-95594219D01*
X118030106Y-95862517D01*
X118298404Y-96041788D01*
X118614883Y-96104740D01*
X119870797Y-96104740D01*
X120187276Y-96041788D01*
X120455574Y-95862517D01*
X120634845Y-95594219D01*
X120697797Y-95277740D01*
X122999883Y-95277740D01*
X123062835Y-95594219D01*
X123242106Y-95862517D01*
X123510404Y-96041788D01*
X123826883Y-96104740D01*
X125082797Y-96104740D01*
X125399276Y-96041788D01*
X125667574Y-95862517D01*
X125846845Y-95594219D01*
X125909797Y-95277740D01*
X125846845Y-94961261D01*
X125667574Y-94692963D01*
X125399276Y-94513692D01*
X125082797Y-94450740D01*
X123826883Y-94450740D01*
X123510404Y-94513692D01*
X123242106Y-94692963D01*
X123062835Y-94961261D01*
X122999883Y-95277740D01*
X120697797Y-95277740D01*
X120634845Y-94961261D01*
X120455574Y-94692963D01*
X120187276Y-94513692D01*
X119870797Y-94450740D01*
X118614883Y-94450740D01*
X118298404Y-94513692D01*
X118030106Y-94692963D01*
X117850835Y-94961261D01*
X117787883Y-95277740D01*
X115697000Y-95277740D01*
X115697000Y-93301063D01*
X179145705Y-93301063D01*
X179404273Y-93926846D01*
X179882636Y-94406044D01*
X180507966Y-94665704D01*
X181185063Y-94666295D01*
X181810846Y-94407727D01*
X182290044Y-93929364D01*
X182549704Y-93304034D01*
X182549706Y-93301063D01*
X184145705Y-93301063D01*
X184404273Y-93926846D01*
X184882636Y-94406044D01*
X185507966Y-94665704D01*
X186185063Y-94666295D01*
X186810846Y-94407727D01*
X187290044Y-93929364D01*
X187549704Y-93304034D01*
X187549706Y-93301063D01*
X194145705Y-93301063D01*
X194404273Y-93926846D01*
X194882636Y-94406044D01*
X195507966Y-94665704D01*
X196185063Y-94666295D01*
X196810846Y-94407727D01*
X197290044Y-93929364D01*
X197549704Y-93304034D01*
X197549706Y-93301063D01*
X199145705Y-93301063D01*
X199404273Y-93926846D01*
X199882636Y-94406044D01*
X200507966Y-94665704D01*
X201185063Y-94666295D01*
X201810846Y-94407727D01*
X202290044Y-93929364D01*
X202549704Y-93304034D01*
X202550295Y-92626937D01*
X202291727Y-92001154D01*
X201813364Y-91521956D01*
X201188034Y-91262296D01*
X200510937Y-91261705D01*
X199885154Y-91520273D01*
X199405956Y-91998636D01*
X199146296Y-92623966D01*
X199145705Y-93301063D01*
X197549706Y-93301063D01*
X197550295Y-92626937D01*
X197291727Y-92001154D01*
X196813364Y-91521956D01*
X196188034Y-91262296D01*
X195510937Y-91261705D01*
X194885154Y-91520273D01*
X194405956Y-91998636D01*
X194146296Y-92623966D01*
X194145705Y-93301063D01*
X187549706Y-93301063D01*
X187550295Y-92626937D01*
X187291727Y-92001154D01*
X186813364Y-91521956D01*
X186188034Y-91262296D01*
X185510937Y-91261705D01*
X184885154Y-91520273D01*
X184405956Y-91998636D01*
X184146296Y-92623966D01*
X184145705Y-93301063D01*
X182549706Y-93301063D01*
X182550295Y-92626937D01*
X182291727Y-92001154D01*
X181813364Y-91521956D01*
X181188034Y-91262296D01*
X180510937Y-91261705D01*
X179885154Y-91520273D01*
X179405956Y-91998636D01*
X179146296Y-92623966D01*
X179145705Y-93301063D01*
X115697000Y-93301063D01*
X115697000Y-88392000D01*
X116185888Y-88392000D01*
X116185557Y-88771783D01*
X116185557Y-88771783D01*
G37*
X116185557Y-88771783D02*
X116574320Y-89712663D01*
X117293550Y-90433150D01*
X118233750Y-90823555D01*
X119251783Y-90824443D01*
X120192663Y-90435680D01*
X120913150Y-89716450D01*
X121303555Y-88776250D01*
X121303890Y-88392000D01*
X205085888Y-88392000D01*
X205085557Y-88771783D01*
X205474320Y-89712663D01*
X206193550Y-90433150D01*
X207133750Y-90823555D01*
X208151783Y-90824443D01*
X209092663Y-90435680D01*
X209813150Y-89716450D01*
X210203555Y-88776250D01*
X210203890Y-88392000D01*
X211328000Y-88392000D01*
X211328000Y-142748000D01*
X210204112Y-142748000D01*
X210204443Y-142368217D01*
X209815680Y-141427337D01*
X209096450Y-140706850D01*
X208156250Y-140316445D01*
X207138217Y-140315557D01*
X206197337Y-140704320D01*
X205476850Y-141423550D01*
X205086445Y-142363750D01*
X205086110Y-142748000D01*
X121304112Y-142748000D01*
X121304443Y-142368217D01*
X120915680Y-141427337D01*
X120196450Y-140706850D01*
X119256250Y-140316445D01*
X118238217Y-140315557D01*
X117297337Y-140704320D01*
X116576850Y-141423550D01*
X116186445Y-142363750D01*
X116186110Y-142748000D01*
X115697000Y-142748000D01*
X115697000Y-136270355D01*
X126680373Y-136270355D01*
X126946932Y-136849726D01*
X127344550Y-137217842D01*
X127190609Y-137320703D01*
X126859707Y-137815932D01*
X126743510Y-138400094D01*
X126743510Y-138459906D01*
X126859707Y-139044068D01*
X127190609Y-139539297D01*
X127685838Y-139870199D01*
X128270000Y-139986396D01*
X128854162Y-139870199D01*
X129349391Y-139539297D01*
X129680293Y-139044068D01*
X129796490Y-138459906D01*
X129796490Y-138400094D01*
X129680293Y-137815932D01*
X129349391Y-137320703D01*
X129195450Y-137217842D01*
X129593068Y-136849726D01*
X129859627Y-136270355D01*
X129740807Y-136017000D01*
X128397000Y-136017000D01*
X128397000Y-136037000D01*
X128143000Y-136037000D01*
X128143000Y-136017000D01*
X126799193Y-136017000D01*
X126680373Y-136270355D01*
X115697000Y-136270355D01*
X115697000Y-131095750D01*
X126635510Y-131095750D01*
X126635510Y-131935799D01*
X126732183Y-132169188D01*
X126910811Y-132347817D01*
X127073900Y-132415371D01*
X126859707Y-132735932D01*
X126743510Y-133320094D01*
X126743510Y-133379906D01*
X126859707Y-133964068D01*
X127190609Y-134459297D01*
X127344550Y-134562158D01*
X126946932Y-134930274D01*
X126680373Y-135509645D01*
X126799193Y-135763000D01*
X128143000Y-135763000D01*
X128143000Y-135743000D01*
X128397000Y-135743000D01*
X128397000Y-135763000D01*
X129740807Y-135763000D01*
X129859627Y-135509645D01*
X129593068Y-134930274D01*
X129195450Y-134562158D01*
X129349391Y-134459297D01*
X129680293Y-133964068D01*
X129796490Y-133379906D01*
X129796490Y-133320094D01*
X129680293Y-132735932D01*
X129466100Y-132415371D01*
X129629189Y-132347817D01*
X129807817Y-132169188D01*
X129904490Y-131935799D01*
X129904490Y-131095750D01*
X129745740Y-130937000D01*
X128397000Y-130937000D01*
X128397000Y-130957000D01*
X128143000Y-130957000D01*
X128143000Y-130937000D01*
X126794260Y-130937000D01*
X126635510Y-131095750D01*
X115697000Y-131095750D01*
X115697000Y-129684201D01*
X126635510Y-129684201D01*
X126635510Y-130524250D01*
X126794260Y-130683000D01*
X128143000Y-130683000D01*
X128143000Y-129334260D01*
X128397000Y-129334260D01*
X128397000Y-130683000D01*
X129745740Y-130683000D01*
X129904490Y-130524250D01*
X129904490Y-129684201D01*
X129807817Y-129450812D01*
X129629189Y-129272183D01*
X129395800Y-129175510D01*
X128555750Y-129175510D01*
X128397000Y-129334260D01*
X128143000Y-129334260D01*
X127984250Y-129175510D01*
X127144200Y-129175510D01*
X126910811Y-129272183D01*
X126732183Y-129450812D01*
X126635510Y-129684201D01*
X115697000Y-129684201D01*
X115697000Y-125757740D01*
X117787883Y-125757740D01*
X117850835Y-126074219D01*
X118030106Y-126342517D01*
X118298404Y-126521788D01*
X118614883Y-126584740D01*
X119870797Y-126584740D01*
X120187276Y-126521788D01*
X120455574Y-126342517D01*
X120634845Y-126074219D01*
X120697797Y-125757740D01*
X122999883Y-125757740D01*
X123062835Y-126074219D01*
X123242106Y-126342517D01*
X123510404Y-126521788D01*
X123826883Y-126584740D01*
X125082797Y-126584740D01*
X125399276Y-126521788D01*
X125667574Y-126342517D01*
X125846845Y-126074219D01*
X125909797Y-125757740D01*
X125846845Y-125441261D01*
X125667574Y-125172963D01*
X125399276Y-124993692D01*
X125082797Y-124930740D01*
X123826883Y-124930740D01*
X123510404Y-124993692D01*
X123242106Y-125172963D01*
X123062835Y-125441261D01*
X122999883Y-125757740D01*
X120697797Y-125757740D01*
X120634845Y-125441261D01*
X120455574Y-125172963D01*
X120187276Y-124993692D01*
X119870797Y-124930740D01*
X118614883Y-124930740D01*
X118298404Y-124993692D01*
X118030106Y-125172963D01*
X117850835Y-125441261D01*
X117787883Y-125757740D01*
X115697000Y-125757740D01*
X115697000Y-115597740D01*
X117787883Y-115597740D01*
X117850835Y-115914219D01*
X118030106Y-116182517D01*
X118298404Y-116361788D01*
X118614883Y-116424740D01*
X119870797Y-116424740D01*
X120187276Y-116361788D01*
X120455574Y-116182517D01*
X120634845Y-115914219D01*
X120697797Y-115597740D01*
X122999883Y-115597740D01*
X123062835Y-115914219D01*
X123242106Y-116182517D01*
X123510404Y-116361788D01*
X123826883Y-116424740D01*
X125082797Y-116424740D01*
X125399276Y-116361788D01*
X125667574Y-116182517D01*
X125846845Y-115914219D01*
X125909797Y-115597740D01*
X125846845Y-115281261D01*
X125667574Y-115012963D01*
X125399276Y-114833692D01*
X125082797Y-114770740D01*
X123826883Y-114770740D01*
X123510404Y-114833692D01*
X123242106Y-115012963D01*
X123062835Y-115281261D01*
X122999883Y-115597740D01*
X120697797Y-115597740D01*
X120634845Y-115281261D01*
X120455574Y-115012963D01*
X120187276Y-114833692D01*
X119870797Y-114770740D01*
X118614883Y-114770740D01*
X118298404Y-114833692D01*
X118030106Y-115012963D01*
X117850835Y-115281261D01*
X117787883Y-115597740D01*
X115697000Y-115597740D01*
X115697000Y-105437740D01*
X117787883Y-105437740D01*
X117850835Y-105754219D01*
X118030106Y-106022517D01*
X118298404Y-106201788D01*
X118614883Y-106264740D01*
X119870797Y-106264740D01*
X120187276Y-106201788D01*
X120455574Y-106022517D01*
X120634845Y-105754219D01*
X120697797Y-105437740D01*
X122999883Y-105437740D01*
X123062835Y-105754219D01*
X123242106Y-106022517D01*
X123510404Y-106201788D01*
X123826883Y-106264740D01*
X125082797Y-106264740D01*
X125399276Y-106201788D01*
X125667574Y-106022517D01*
X125846845Y-105754219D01*
X125909797Y-105437740D01*
X125846845Y-105121261D01*
X125667574Y-104852963D01*
X125399276Y-104673692D01*
X125082797Y-104610740D01*
X123826883Y-104610740D01*
X123510404Y-104673692D01*
X123242106Y-104852963D01*
X123062835Y-105121261D01*
X122999883Y-105437740D01*
X120697797Y-105437740D01*
X120634845Y-105121261D01*
X120455574Y-104852963D01*
X120187276Y-104673692D01*
X119870797Y-104610740D01*
X118614883Y-104610740D01*
X118298404Y-104673692D01*
X118030106Y-104852963D01*
X117850835Y-105121261D01*
X117787883Y-105437740D01*
X115697000Y-105437740D01*
X115697000Y-97318779D01*
X150810857Y-97318779D01*
X150936495Y-97622846D01*
X151103445Y-97790088D01*
X150937312Y-97955930D01*
X150811144Y-98259778D01*
X150810857Y-98588779D01*
X150936495Y-98892846D01*
X151168930Y-99125688D01*
X151472778Y-99251856D01*
X151801779Y-99252143D01*
X152105846Y-99126505D01*
X152338688Y-98894070D01*
X152464856Y-98590222D01*
X152464917Y-98520150D01*
X152734031Y-98251036D01*
X152734034Y-98251034D01*
X152875369Y-98039510D01*
X152875370Y-98039509D01*
X152925001Y-97790000D01*
X152925000Y-97789995D01*
X152925000Y-96155068D01*
X153178067Y-95902000D01*
X157209932Y-95902000D01*
X157336000Y-96028067D01*
X157336000Y-101490683D01*
X157137222Y-101408144D01*
X156808221Y-101407857D01*
X156504154Y-101533495D01*
X156271312Y-101765930D01*
X156145144Y-102069778D01*
X156144857Y-102398779D01*
X156270495Y-102702846D01*
X156320000Y-102752438D01*
X156320000Y-108489635D01*
X156250154Y-108518495D01*
X156017312Y-108750930D01*
X155891144Y-109054778D01*
X155890857Y-109383779D01*
X156016495Y-109687846D01*
X156066000Y-109737438D01*
X156066000Y-119363000D01*
X153212067Y-119363000D01*
X153369031Y-119206036D01*
X153369034Y-119206034D01*
X153510369Y-118994510D01*
X153560000Y-118745000D01*
X153560000Y-114817673D01*
X153608688Y-114769070D01*
X153734856Y-114465222D01*
X153735143Y-114136221D01*
X153609505Y-113832154D01*
X153377070Y-113599312D01*
X153073222Y-113473144D01*
X153003150Y-113473083D01*
X152925000Y-113394932D01*
X152925000Y-109220005D01*
X152925001Y-109220000D01*
X152875370Y-108970491D01*
X152784510Y-108834509D01*
X152734034Y-108758966D01*
X152734031Y-108758964D01*
X152465083Y-108490016D01*
X152465143Y-108421221D01*
X152339505Y-108117154D01*
X152107070Y-107884312D01*
X151803222Y-107758144D01*
X151474221Y-107757857D01*
X151170154Y-107883495D01*
X150937312Y-108115930D01*
X150811144Y-108419778D01*
X150810857Y-108748779D01*
X150936495Y-109052846D01*
X151168930Y-109285688D01*
X151472778Y-109411856D01*
X151542850Y-109411917D01*
X151621000Y-109490067D01*
X151621000Y-113664995D01*
X151620999Y-113665000D01*
X151638518Y-113753070D01*
X151670631Y-113914510D01*
X151761490Y-114050491D01*
X151811966Y-114126034D01*
X152080917Y-114394985D01*
X152080857Y-114463779D01*
X152206495Y-114767846D01*
X152256000Y-114817438D01*
X152256000Y-118474933D01*
X151543015Y-119187917D01*
X151474221Y-119187857D01*
X151170154Y-119313495D01*
X150937312Y-119545930D01*
X150811144Y-119849778D01*
X150810857Y-120178779D01*
X150936495Y-120482846D01*
X150986000Y-120532438D01*
X150986000Y-130927327D01*
X150937312Y-130975930D01*
X150811144Y-131279778D01*
X150810857Y-131608779D01*
X150936495Y-131912846D01*
X151103445Y-132080088D01*
X150937312Y-132245930D01*
X150811144Y-132549778D01*
X150810857Y-132878779D01*
X150936495Y-133182846D01*
X151168930Y-133415688D01*
X151472778Y-133541856D01*
X151801779Y-133542143D01*
X152105846Y-133416505D01*
X152189390Y-133333107D01*
X152227113Y-133325604D01*
X152256000Y-133319857D01*
X152256000Y-138683995D01*
X152255999Y-138684000D01*
X152294328Y-138876688D01*
X152305631Y-138933510D01*
X152352158Y-139003143D01*
X152446966Y-139145034D01*
X152700964Y-139399031D01*
X152700966Y-139399034D01*
X152912490Y-139540369D01*
X153162000Y-139590000D01*
X157733995Y-139590000D01*
X157734000Y-139590001D01*
X157942113Y-139548604D01*
X157983510Y-139540369D01*
X158195034Y-139399034D01*
X158844985Y-138749083D01*
X158913779Y-138749143D01*
X159217846Y-138623505D01*
X159450688Y-138391070D01*
X159576856Y-138087222D01*
X159577143Y-137758221D01*
X159451505Y-137454154D01*
X159219070Y-137221312D01*
X158915222Y-137095144D01*
X158640000Y-137094904D01*
X158640000Y-136830000D01*
X166446676Y-136830000D01*
X166446676Y-138030000D01*
X166483423Y-138225294D01*
X166598842Y-138404660D01*
X166774951Y-138524990D01*
X166984000Y-138567324D01*
X168184000Y-138567324D01*
X168379294Y-138530577D01*
X168558660Y-138415158D01*
X168678990Y-138239049D01*
X168721324Y-138030000D01*
X168721324Y-137653191D01*
X168996805Y-137653191D01*
X169168019Y-138067560D01*
X169484772Y-138384867D01*
X169898842Y-138556804D01*
X170347191Y-138557195D01*
X170761560Y-138385981D01*
X171078867Y-138069228D01*
X171250804Y-137655158D01*
X171250805Y-137653191D01*
X171536805Y-137653191D01*
X171708019Y-138067560D01*
X172024772Y-138384867D01*
X172438842Y-138556804D01*
X172887191Y-138557195D01*
X173301560Y-138385981D01*
X173618867Y-138069228D01*
X173790804Y-137655158D01*
X173790805Y-137653191D01*
X174076805Y-137653191D01*
X174248019Y-138067560D01*
X174564772Y-138384867D01*
X174978842Y-138556804D01*
X175427191Y-138557195D01*
X175841560Y-138385981D01*
X176158867Y-138069228D01*
X176330804Y-137655158D01*
X176330805Y-137653191D01*
X176616805Y-137653191D01*
X176788019Y-138067560D01*
X177104772Y-138384867D01*
X177518842Y-138556804D01*
X177967191Y-138557195D01*
X178381560Y-138385981D01*
X178474969Y-138292735D01*
X179600870Y-138292735D01*
X179650383Y-138518164D01*
X180115036Y-138677807D01*
X180605413Y-138647482D01*
X180917617Y-138518164D01*
X180967130Y-138292735D01*
X180284000Y-137609605D01*
X179600870Y-138292735D01*
X178474969Y-138292735D01*
X178698867Y-138069228D01*
X178870804Y-137655158D01*
X178871147Y-137261036D01*
X179036193Y-137261036D01*
X179066518Y-137751413D01*
X179195836Y-138063617D01*
X179421265Y-138113130D01*
X180104395Y-137430000D01*
X180463605Y-137430000D01*
X181146735Y-138113130D01*
X181372164Y-138063617D01*
X181513175Y-137653191D01*
X181696805Y-137653191D01*
X181868019Y-138067560D01*
X182184772Y-138384867D01*
X182598842Y-138556804D01*
X183047191Y-138557195D01*
X183461560Y-138385981D01*
X183778867Y-138069228D01*
X183950804Y-137655158D01*
X183950805Y-137653191D01*
X184236805Y-137653191D01*
X184408019Y-138067560D01*
X184724772Y-138384867D01*
X185138842Y-138556804D01*
X185587191Y-138557195D01*
X186001560Y-138385981D01*
X186318867Y-138069228D01*
X186490804Y-137655158D01*
X186490805Y-137653191D01*
X186776805Y-137653191D01*
X186948019Y-138067560D01*
X187264772Y-138384867D01*
X187678842Y-138556804D01*
X188127191Y-138557195D01*
X188541560Y-138385981D01*
X188858867Y-138069228D01*
X189030804Y-137655158D01*
X189030805Y-137653191D01*
X189316805Y-137653191D01*
X189488019Y-138067560D01*
X189804772Y-138384867D01*
X190218842Y-138556804D01*
X190667191Y-138557195D01*
X191081560Y-138385981D01*
X191398867Y-138069228D01*
X191570804Y-137655158D01*
X191570805Y-137653191D01*
X191856805Y-137653191D01*
X192028019Y-138067560D01*
X192344772Y-138384867D01*
X192758842Y-138556804D01*
X193207191Y-138557195D01*
X193621560Y-138385981D01*
X193938867Y-138069228D01*
X194110804Y-137655158D01*
X194111195Y-137206809D01*
X193939981Y-136792440D01*
X193623228Y-136475133D01*
X193209158Y-136303196D01*
X192760809Y-136302805D01*
X192346440Y-136474019D01*
X192029133Y-136790772D01*
X191857196Y-137204842D01*
X191856805Y-137653191D01*
X191570805Y-137653191D01*
X191571195Y-137206809D01*
X191399981Y-136792440D01*
X191083228Y-136475133D01*
X190669158Y-136303196D01*
X190220809Y-136302805D01*
X189806440Y-136474019D01*
X189489133Y-136790772D01*
X189317196Y-137204842D01*
X189316805Y-137653191D01*
X189030805Y-137653191D01*
X189031195Y-137206809D01*
X188859981Y-136792440D01*
X188543228Y-136475133D01*
X188129158Y-136303196D01*
X187680809Y-136302805D01*
X187266440Y-136474019D01*
X186949133Y-136790772D01*
X186777196Y-137204842D01*
X186776805Y-137653191D01*
X186490805Y-137653191D01*
X186491195Y-137206809D01*
X186319981Y-136792440D01*
X186003228Y-136475133D01*
X185589158Y-136303196D01*
X185140809Y-136302805D01*
X184726440Y-136474019D01*
X184409133Y-136790772D01*
X184237196Y-137204842D01*
X184236805Y-137653191D01*
X183950805Y-137653191D01*
X183951195Y-137206809D01*
X183779981Y-136792440D01*
X183463228Y-136475133D01*
X183049158Y-136303196D01*
X182600809Y-136302805D01*
X182186440Y-136474019D01*
X181869133Y-136790772D01*
X181697196Y-137204842D01*
X181696805Y-137653191D01*
X181513175Y-137653191D01*
X181531807Y-137598964D01*
X181501482Y-137108587D01*
X181372164Y-136796383D01*
X181146735Y-136746870D01*
X180463605Y-137430000D01*
X180104395Y-137430000D01*
X179421265Y-136746870D01*
X179195836Y-136796383D01*
X179036193Y-137261036D01*
X178871147Y-137261036D01*
X178871195Y-137206809D01*
X178699981Y-136792440D01*
X178475200Y-136567265D01*
X179600870Y-136567265D01*
X180284000Y-137250395D01*
X180967130Y-136567265D01*
X180917617Y-136341836D01*
X180452964Y-136182193D01*
X179962587Y-136212518D01*
X179650383Y-136341836D01*
X179600870Y-136567265D01*
X178475200Y-136567265D01*
X178383228Y-136475133D01*
X177969158Y-136303196D01*
X177520809Y-136302805D01*
X177106440Y-136474019D01*
X176789133Y-136790772D01*
X176617196Y-137204842D01*
X176616805Y-137653191D01*
X176330805Y-137653191D01*
X176331195Y-137206809D01*
X176159981Y-136792440D01*
X175843228Y-136475133D01*
X175429158Y-136303196D01*
X174980809Y-136302805D01*
X174566440Y-136474019D01*
X174249133Y-136790772D01*
X174077196Y-137204842D01*
X174076805Y-137653191D01*
X173790805Y-137653191D01*
X173791195Y-137206809D01*
X173619981Y-136792440D01*
X173303228Y-136475133D01*
X172889158Y-136303196D01*
X172440809Y-136302805D01*
X172026440Y-136474019D01*
X171709133Y-136790772D01*
X171537196Y-137204842D01*
X171536805Y-137653191D01*
X171250805Y-137653191D01*
X171251195Y-137206809D01*
X171079981Y-136792440D01*
X170763228Y-136475133D01*
X170349158Y-136303196D01*
X169900809Y-136302805D01*
X169486440Y-136474019D01*
X169169133Y-136790772D01*
X168997196Y-137204842D01*
X168996805Y-137653191D01*
X168721324Y-137653191D01*
X168721324Y-136830000D01*
X168684577Y-136634706D01*
X168569158Y-136455340D01*
X168393049Y-136335010D01*
X168184000Y-136292676D01*
X166984000Y-136292676D01*
X166788706Y-136329423D01*
X166609340Y-136444842D01*
X166489010Y-136620951D01*
X166446676Y-136830000D01*
X158640000Y-136830000D01*
X158640000Y-124476068D01*
X159274068Y-123842000D01*
X161543995Y-123842000D01*
X161544000Y-123842001D01*
X161752113Y-123800604D01*
X161793510Y-123792369D01*
X162005034Y-123651034D01*
X163494876Y-122161191D01*
X166456805Y-122161191D01*
X166628019Y-122575560D01*
X166944772Y-122892867D01*
X167358842Y-123064804D01*
X167807191Y-123065195D01*
X168221560Y-122893981D01*
X168538867Y-122577228D01*
X168710804Y-122163158D01*
X168710805Y-122161191D01*
X168996805Y-122161191D01*
X169168019Y-122575560D01*
X169484772Y-122892867D01*
X169898842Y-123064804D01*
X170347191Y-123065195D01*
X170761560Y-122893981D01*
X171078867Y-122577228D01*
X171250804Y-122163158D01*
X171250805Y-122161191D01*
X171536805Y-122161191D01*
X171708019Y-122575560D01*
X172024772Y-122892867D01*
X172438842Y-123064804D01*
X172887191Y-123065195D01*
X173301560Y-122893981D01*
X173394969Y-122800735D01*
X174520870Y-122800735D01*
X174570383Y-123026164D01*
X175035036Y-123185807D01*
X175525413Y-123155482D01*
X175837617Y-123026164D01*
X175887130Y-122800735D01*
X175204000Y-122117605D01*
X174520870Y-122800735D01*
X173394969Y-122800735D01*
X173618867Y-122577228D01*
X173790804Y-122163158D01*
X173791147Y-121769036D01*
X173956193Y-121769036D01*
X173986518Y-122259413D01*
X174115836Y-122571617D01*
X174341265Y-122621130D01*
X175024395Y-121938000D01*
X175383605Y-121938000D01*
X176066735Y-122621130D01*
X176292164Y-122571617D01*
X176433175Y-122161191D01*
X176616805Y-122161191D01*
X176788019Y-122575560D01*
X177104772Y-122892867D01*
X177518842Y-123064804D01*
X177967191Y-123065195D01*
X178381560Y-122893981D01*
X178698867Y-122577228D01*
X178870804Y-122163158D01*
X178870805Y-122161191D01*
X179156805Y-122161191D01*
X179328019Y-122575560D01*
X179644772Y-122892867D01*
X180058842Y-123064804D01*
X180507191Y-123065195D01*
X180921560Y-122893981D01*
X181238867Y-122577228D01*
X181410804Y-122163158D01*
X181410805Y-122161191D01*
X181696805Y-122161191D01*
X181868019Y-122575560D01*
X182184772Y-122892867D01*
X182598842Y-123064804D01*
X183047191Y-123065195D01*
X183461560Y-122893981D01*
X183778867Y-122577228D01*
X183950804Y-122163158D01*
X183950805Y-122161191D01*
X184236805Y-122161191D01*
X184408019Y-122575560D01*
X184724772Y-122892867D01*
X185138842Y-123064804D01*
X185587191Y-123065195D01*
X186001560Y-122893981D01*
X186318867Y-122577228D01*
X186490804Y-122163158D01*
X186490805Y-122161191D01*
X186776805Y-122161191D01*
X186948019Y-122575560D01*
X187264772Y-122892867D01*
X187678842Y-123064804D01*
X188127191Y-123065195D01*
X188541560Y-122893981D01*
X188858867Y-122577228D01*
X189030804Y-122163158D01*
X189030805Y-122161191D01*
X189316805Y-122161191D01*
X189488019Y-122575560D01*
X189804772Y-122892867D01*
X190218842Y-123064804D01*
X190667191Y-123065195D01*
X191081560Y-122893981D01*
X191398867Y-122577228D01*
X191570804Y-122163158D01*
X191571195Y-121714809D01*
X191399981Y-121300440D01*
X191083228Y-120983133D01*
X190669158Y-120811196D01*
X190220809Y-120810805D01*
X189806440Y-120982019D01*
X189489133Y-121298772D01*
X189317196Y-121712842D01*
X189316805Y-122161191D01*
X189030805Y-122161191D01*
X189031195Y-121714809D01*
X188859981Y-121300440D01*
X188543228Y-120983133D01*
X188129158Y-120811196D01*
X187680809Y-120810805D01*
X187266440Y-120982019D01*
X186949133Y-121298772D01*
X186777196Y-121712842D01*
X186776805Y-122161191D01*
X186490805Y-122161191D01*
X186491195Y-121714809D01*
X186319981Y-121300440D01*
X186003228Y-120983133D01*
X185589158Y-120811196D01*
X185140809Y-120810805D01*
X184726440Y-120982019D01*
X184409133Y-121298772D01*
X184237196Y-121712842D01*
X184236805Y-122161191D01*
X183950805Y-122161191D01*
X183951195Y-121714809D01*
X183779981Y-121300440D01*
X183463228Y-120983133D01*
X183049158Y-120811196D01*
X182600809Y-120810805D01*
X182186440Y-120982019D01*
X181869133Y-121298772D01*
X181697196Y-121712842D01*
X181696805Y-122161191D01*
X181410805Y-122161191D01*
X181411195Y-121714809D01*
X181239981Y-121300440D01*
X180923228Y-120983133D01*
X180509158Y-120811196D01*
X180060809Y-120810805D01*
X179646440Y-120982019D01*
X179329133Y-121298772D01*
X179157196Y-121712842D01*
X179156805Y-122161191D01*
X178870805Y-122161191D01*
X178871195Y-121714809D01*
X178699981Y-121300440D01*
X178383228Y-120983133D01*
X177969158Y-120811196D01*
X177520809Y-120810805D01*
X177106440Y-120982019D01*
X176789133Y-121298772D01*
X176617196Y-121712842D01*
X176616805Y-122161191D01*
X176433175Y-122161191D01*
X176451807Y-122106964D01*
X176421482Y-121616587D01*
X176292164Y-121304383D01*
X176066735Y-121254870D01*
X175383605Y-121938000D01*
X175024395Y-121938000D01*
X174341265Y-121254870D01*
X174115836Y-121304383D01*
X173956193Y-121769036D01*
X173791147Y-121769036D01*
X173791195Y-121714809D01*
X173619981Y-121300440D01*
X173395200Y-121075265D01*
X174520870Y-121075265D01*
X175204000Y-121758395D01*
X175887130Y-121075265D01*
X175837617Y-120849836D01*
X175372964Y-120690193D01*
X174882587Y-120720518D01*
X174570383Y-120849836D01*
X174520870Y-121075265D01*
X173395200Y-121075265D01*
X173303228Y-120983133D01*
X172889158Y-120811196D01*
X172440809Y-120810805D01*
X172026440Y-120982019D01*
X171709133Y-121298772D01*
X171537196Y-121712842D01*
X171536805Y-122161191D01*
X171250805Y-122161191D01*
X171251195Y-121714809D01*
X171079981Y-121300440D01*
X170763228Y-120983133D01*
X170349158Y-120811196D01*
X169900809Y-120810805D01*
X169486440Y-120982019D01*
X169169133Y-121298772D01*
X168997196Y-121712842D01*
X168996805Y-122161191D01*
X168710805Y-122161191D01*
X168711195Y-121714809D01*
X168539981Y-121300440D01*
X168223228Y-120983133D01*
X167809158Y-120811196D01*
X167360809Y-120810805D01*
X166946440Y-120982019D01*
X166629133Y-121298772D01*
X166457196Y-121712842D01*
X166456805Y-122161191D01*
X163494876Y-122161191D01*
X163783031Y-121873036D01*
X163783034Y-121873034D01*
X163924369Y-121661510D01*
X163924370Y-121661509D01*
X163974001Y-121412000D01*
X163974000Y-121411995D01*
X163974000Y-121237568D01*
X166083984Y-119127583D01*
X166152779Y-119127643D01*
X166456846Y-119002005D01*
X166689688Y-118769570D01*
X166815856Y-118465722D01*
X166816143Y-118136721D01*
X166690505Y-117832654D01*
X166458070Y-117599812D01*
X166154222Y-117473644D01*
X165825221Y-117473357D01*
X165521154Y-117598995D01*
X165288312Y-117831430D01*
X165162144Y-118135278D01*
X165162083Y-118205350D01*
X162860966Y-120506466D01*
X162719631Y-120717990D01*
X162719631Y-120717991D01*
X162669999Y-120967500D01*
X162670000Y-120967505D01*
X162670000Y-121141933D01*
X162370975Y-121440958D01*
X162371143Y-121248221D01*
X162245505Y-120944154D01*
X162196000Y-120894562D01*
X162196000Y-120396000D01*
X162146369Y-120146490D01*
X162005034Y-119934966D01*
X162005031Y-119934964D01*
X161624034Y-119553966D01*
X161602580Y-119539631D01*
X161412510Y-119412631D01*
X161371113Y-119404396D01*
X161163000Y-119362999D01*
X161162995Y-119363000D01*
X159140673Y-119363000D01*
X159092070Y-119314312D01*
X158788222Y-119188144D01*
X158640000Y-119188015D01*
X158640000Y-117492000D01*
X163566327Y-117492000D01*
X163614930Y-117540688D01*
X163918778Y-117666856D01*
X164247779Y-117667143D01*
X164551846Y-117541505D01*
X164784688Y-117309070D01*
X164910856Y-117005222D01*
X164911143Y-116676221D01*
X164785505Y-116372154D01*
X164553070Y-116139312D01*
X164249222Y-116013144D01*
X163920221Y-116012857D01*
X163616154Y-116138495D01*
X163566562Y-116188000D01*
X158640000Y-116188000D01*
X158640000Y-115044317D01*
X158838778Y-115126856D01*
X159167779Y-115127143D01*
X159471846Y-115001505D01*
X159521438Y-114952000D01*
X163058327Y-114952000D01*
X163106930Y-115000688D01*
X163410778Y-115126856D01*
X163739779Y-115127143D01*
X164043846Y-115001505D01*
X164276688Y-114769070D01*
X164402856Y-114465222D01*
X164403143Y-114136221D01*
X164277505Y-113832154D01*
X164045070Y-113599312D01*
X163741222Y-113473144D01*
X163412221Y-113472857D01*
X163108154Y-113598495D01*
X163058562Y-113648000D01*
X159656000Y-113648000D01*
X159656000Y-113447779D01*
X178750857Y-113447779D01*
X178876495Y-113751846D01*
X179108930Y-113984688D01*
X179412778Y-114110856D01*
X179741779Y-114111143D01*
X180045846Y-113985505D01*
X180095438Y-113936000D01*
X187181932Y-113936000D01*
X193658000Y-120412067D01*
X193658000Y-121017966D01*
X193623228Y-120983133D01*
X193209158Y-120811196D01*
X192760809Y-120810805D01*
X192346440Y-120982019D01*
X192029133Y-121298772D01*
X191857196Y-121712842D01*
X191856805Y-122161191D01*
X192028019Y-122575560D01*
X192344772Y-122892867D01*
X192758842Y-123064804D01*
X193207191Y-123065195D01*
X193621560Y-122893981D01*
X193658000Y-122857605D01*
X193658000Y-133857995D01*
X193657999Y-133858000D01*
X193679098Y-133964068D01*
X193707631Y-134107510D01*
X193836503Y-134300381D01*
X193848966Y-134319034D01*
X195892755Y-136362823D01*
X195749158Y-136303196D01*
X195300809Y-136302805D01*
X194886440Y-136474019D01*
X194569133Y-136790772D01*
X194397196Y-137204842D01*
X194396805Y-137653191D01*
X194568019Y-138067560D01*
X194884772Y-138384867D01*
X195298842Y-138556804D01*
X195747191Y-138557195D01*
X196161560Y-138385981D01*
X196478867Y-138069228D01*
X196650804Y-137655158D01*
X196651195Y-137206809D01*
X196590959Y-137061027D01*
X196937020Y-137407088D01*
X196936805Y-137653191D01*
X197108019Y-138067560D01*
X197424772Y-138384867D01*
X197838842Y-138556804D01*
X198287191Y-138557195D01*
X198701560Y-138385981D01*
X199018867Y-138069228D01*
X199190804Y-137655158D01*
X199191195Y-137206809D01*
X199019981Y-136792440D01*
X198703228Y-136475133D01*
X198289158Y-136303196D01*
X197840809Y-136302805D01*
X197724805Y-136350737D01*
X194962000Y-133587932D01*
X194962000Y-122924935D01*
X195298842Y-123064804D01*
X195747191Y-123065195D01*
X196161560Y-122893981D01*
X196478867Y-122577228D01*
X196650804Y-122163158D01*
X196650805Y-122161191D01*
X196936805Y-122161191D01*
X197108019Y-122575560D01*
X197424772Y-122892867D01*
X197838842Y-123064804D01*
X198287191Y-123065195D01*
X198701560Y-122893981D01*
X199018867Y-122577228D01*
X199190804Y-122163158D01*
X199191195Y-121714809D01*
X199019981Y-121300440D01*
X198703228Y-120983133D01*
X198289158Y-120811196D01*
X197840809Y-120810805D01*
X197426440Y-120982019D01*
X197109133Y-121298772D01*
X196937196Y-121712842D01*
X196936805Y-122161191D01*
X196650805Y-122161191D01*
X196651195Y-121714809D01*
X196479981Y-121300440D01*
X196163228Y-120983133D01*
X195749158Y-120811196D01*
X195300809Y-120810805D01*
X194962000Y-120950798D01*
X194962000Y-120142005D01*
X194962001Y-120142000D01*
X194912370Y-119892491D01*
X194827511Y-119765490D01*
X194771034Y-119680966D01*
X194771031Y-119680964D01*
X187913034Y-112822966D01*
X187842744Y-112776000D01*
X187701510Y-112681631D01*
X187660113Y-112673396D01*
X187452000Y-112631999D01*
X187451995Y-112632000D01*
X180095673Y-112632000D01*
X180047070Y-112583312D01*
X179743222Y-112457144D01*
X179414221Y-112456857D01*
X179110154Y-112582495D01*
X178877312Y-112814930D01*
X178751144Y-113118778D01*
X178750857Y-113447779D01*
X159656000Y-113447779D01*
X159656000Y-109891779D01*
X178750857Y-109891779D01*
X178876495Y-110195846D01*
X179108930Y-110428688D01*
X179412778Y-110554856D01*
X179741779Y-110555143D01*
X180045846Y-110429505D01*
X180095438Y-110380000D01*
X190991932Y-110380000D01*
X201278000Y-120666067D01*
X201278000Y-121017966D01*
X201243228Y-120983133D01*
X200829158Y-120811196D01*
X200380809Y-120810805D01*
X199966440Y-120982019D01*
X199649133Y-121298772D01*
X199477196Y-121712842D01*
X199476805Y-122161191D01*
X199648019Y-122575560D01*
X199964772Y-122892867D01*
X200378842Y-123064804D01*
X200827191Y-123065195D01*
X201241560Y-122893981D01*
X201278000Y-122857605D01*
X201278000Y-136127933D01*
X201022467Y-136383465D01*
X200829158Y-136303196D01*
X200380809Y-136302805D01*
X199966440Y-136474019D01*
X199649133Y-136790772D01*
X199477196Y-137204842D01*
X199476805Y-137653191D01*
X199648019Y-138067560D01*
X199964772Y-138384867D01*
X200378842Y-138556804D01*
X200827191Y-138557195D01*
X201241560Y-138385981D01*
X201558867Y-138069228D01*
X201730804Y-137655158D01*
X201730923Y-137519145D01*
X202017172Y-137232896D01*
X202016805Y-137653191D01*
X202188019Y-138067560D01*
X202504772Y-138384867D01*
X202918842Y-138556804D01*
X203367191Y-138557195D01*
X203781560Y-138385981D01*
X204098867Y-138069228D01*
X204270804Y-137655158D01*
X204270805Y-137653191D01*
X204556805Y-137653191D01*
X204728019Y-138067560D01*
X205044772Y-138384867D01*
X205458842Y-138556804D01*
X205907191Y-138557195D01*
X206321560Y-138385981D01*
X206638867Y-138069228D01*
X206810804Y-137655158D01*
X206810805Y-137653191D01*
X207096805Y-137653191D01*
X207268019Y-138067560D01*
X207584772Y-138384867D01*
X207998842Y-138556804D01*
X208447191Y-138557195D01*
X208861560Y-138385981D01*
X209178867Y-138069228D01*
X209350804Y-137655158D01*
X209351195Y-137206809D01*
X209179981Y-136792440D01*
X208863228Y-136475133D01*
X208449158Y-136303196D01*
X208000809Y-136302805D01*
X207586440Y-136474019D01*
X207269133Y-136790772D01*
X207097196Y-137204842D01*
X207096805Y-137653191D01*
X206810805Y-137653191D01*
X206811195Y-137206809D01*
X206639981Y-136792440D01*
X206323228Y-136475133D01*
X205909158Y-136303196D01*
X205460809Y-136302805D01*
X205046440Y-136474019D01*
X204729133Y-136790772D01*
X204557196Y-137204842D01*
X204556805Y-137653191D01*
X204270805Y-137653191D01*
X204271195Y-137206809D01*
X204099981Y-136792440D01*
X203783228Y-136475133D01*
X203369158Y-136303196D01*
X202920809Y-136302805D01*
X202572291Y-136446810D01*
X202582000Y-136398000D01*
X202582000Y-122924935D01*
X202918842Y-123064804D01*
X203367191Y-123065195D01*
X203781560Y-122893981D01*
X204098867Y-122577228D01*
X204270804Y-122163158D01*
X204270805Y-122161191D01*
X204556805Y-122161191D01*
X204728019Y-122575560D01*
X205044772Y-122892867D01*
X205458842Y-123064804D01*
X205907191Y-123065195D01*
X206321560Y-122893981D01*
X206638867Y-122577228D01*
X206810804Y-122163158D01*
X206810805Y-122161191D01*
X207096805Y-122161191D01*
X207268019Y-122575560D01*
X207584772Y-122892867D01*
X207998842Y-123064804D01*
X208447191Y-123065195D01*
X208861560Y-122893981D01*
X209178867Y-122577228D01*
X209350804Y-122163158D01*
X209351195Y-121714809D01*
X209179981Y-121300440D01*
X208863228Y-120983133D01*
X208449158Y-120811196D01*
X208000809Y-120810805D01*
X207586440Y-120982019D01*
X207269133Y-121298772D01*
X207097196Y-121712842D01*
X207096805Y-122161191D01*
X206810805Y-122161191D01*
X206811195Y-121714809D01*
X206639981Y-121300440D01*
X206323228Y-120983133D01*
X205909158Y-120811196D01*
X205460809Y-120810805D01*
X205046440Y-120982019D01*
X204729133Y-121298772D01*
X204557196Y-121712842D01*
X204556805Y-122161191D01*
X204270805Y-122161191D01*
X204271195Y-121714809D01*
X204099981Y-121300440D01*
X203783228Y-120983133D01*
X203369158Y-120811196D01*
X202920809Y-120810805D01*
X202582000Y-120950798D01*
X202582000Y-120396000D01*
X202532369Y-120146490D01*
X202391034Y-119934966D01*
X202391031Y-119934964D01*
X201304376Y-118848308D01*
X205228727Y-118848308D01*
X205468305Y-119428132D01*
X205911535Y-119872136D01*
X206490939Y-120112725D01*
X207118308Y-120113273D01*
X207698132Y-119873695D01*
X208142136Y-119430465D01*
X208382725Y-118851061D01*
X208383166Y-118346032D01*
X208500794Y-118463865D01*
X209015901Y-118677756D01*
X209573652Y-118678243D01*
X210089132Y-118465251D01*
X210483865Y-118071206D01*
X210697756Y-117556099D01*
X210698243Y-116998348D01*
X210485251Y-116482868D01*
X210091206Y-116088135D01*
X209576099Y-115874244D01*
X209018348Y-115873757D01*
X208502868Y-116086749D01*
X208108135Y-116480794D01*
X207894244Y-116995901D01*
X207893897Y-117393634D01*
X207700465Y-117199864D01*
X207121061Y-116959275D01*
X206493692Y-116958727D01*
X205913868Y-117198305D01*
X205469864Y-117641535D01*
X205229275Y-118220939D01*
X205228727Y-118848308D01*
X201304376Y-118848308D01*
X196294128Y-113838060D01*
X208413545Y-113838060D01*
X208496884Y-114091953D01*
X209061306Y-114297590D01*
X209661458Y-114271579D01*
X210095116Y-114091953D01*
X210178455Y-113838060D01*
X209296000Y-112955605D01*
X208413545Y-113838060D01*
X196294128Y-113838060D01*
X194294376Y-111838308D01*
X205228727Y-111838308D01*
X205468305Y-112418132D01*
X205911535Y-112862136D01*
X206490939Y-113102725D01*
X207118308Y-113103273D01*
X207698132Y-112863695D01*
X207784640Y-112777338D01*
X207800421Y-113141458D01*
X207980047Y-113575116D01*
X208233940Y-113658455D01*
X209116395Y-112776000D01*
X209475605Y-112776000D01*
X210358060Y-113658455D01*
X210611953Y-113575116D01*
X210817590Y-113010694D01*
X210791579Y-112410542D01*
X210611953Y-111976884D01*
X210358060Y-111893545D01*
X209475605Y-112776000D01*
X209116395Y-112776000D01*
X209102253Y-112761858D01*
X209281858Y-112582253D01*
X209296000Y-112596395D01*
X210178455Y-111713940D01*
X210095116Y-111460047D01*
X209530694Y-111254410D01*
X208930542Y-111280421D01*
X208496884Y-111460047D01*
X208413546Y-111713938D01*
X208382863Y-111683255D01*
X208383273Y-111213692D01*
X208143695Y-110633868D01*
X207700465Y-110189864D01*
X207121061Y-109949275D01*
X206493692Y-109948727D01*
X205913868Y-110188305D01*
X205469864Y-110631535D01*
X205229275Y-111210939D01*
X205228727Y-111838308D01*
X194294376Y-111838308D01*
X191723034Y-109266966D01*
X191646024Y-109215510D01*
X191511510Y-109125631D01*
X191470113Y-109117396D01*
X191262000Y-109075999D01*
X191261995Y-109076000D01*
X180095673Y-109076000D01*
X180047070Y-109027312D01*
X179743222Y-108901144D01*
X179414221Y-108900857D01*
X179110154Y-109026495D01*
X178877312Y-109258930D01*
X178751144Y-109562778D01*
X178750857Y-109891779D01*
X159656000Y-109891779D01*
X159656000Y-105949750D01*
X177789000Y-105949750D01*
X177789000Y-106690310D01*
X177885673Y-106923699D01*
X178064302Y-107102327D01*
X178297691Y-107199000D01*
X179038250Y-107199000D01*
X179197000Y-107040250D01*
X179197000Y-105791000D01*
X177947750Y-105791000D01*
X177789000Y-105949750D01*
X159656000Y-105949750D01*
X159656000Y-104637690D01*
X177789000Y-104637690D01*
X177789000Y-105378250D01*
X177947750Y-105537000D01*
X179197000Y-105537000D01*
X179197000Y-104287750D01*
X179451000Y-104287750D01*
X179451000Y-105537000D01*
X179471000Y-105537000D01*
X179471000Y-105791000D01*
X179451000Y-105791000D01*
X179451000Y-107040250D01*
X179609750Y-107199000D01*
X180350309Y-107199000D01*
X180583698Y-107102327D01*
X180762327Y-106923699D01*
X180857666Y-106693530D01*
X181289954Y-106982376D01*
X181836043Y-107091000D01*
X181891957Y-107091000D01*
X182438046Y-106982376D01*
X182900998Y-106673041D01*
X183134000Y-106324329D01*
X183367002Y-106673041D01*
X183829954Y-106982376D01*
X184376043Y-107091000D01*
X184431957Y-107091000D01*
X184978046Y-106982376D01*
X185440998Y-106673041D01*
X185750333Y-106210089D01*
X185858957Y-105664000D01*
X185750333Y-105117911D01*
X185440998Y-104654959D01*
X184978046Y-104345624D01*
X184431957Y-104237000D01*
X184376043Y-104237000D01*
X183829954Y-104345624D01*
X183367002Y-104654959D01*
X183134000Y-105003671D01*
X182900998Y-104654959D01*
X182438046Y-104345624D01*
X181891957Y-104237000D01*
X181836043Y-104237000D01*
X181289954Y-104345624D01*
X180857666Y-104634470D01*
X180762327Y-104404301D01*
X180583698Y-104225673D01*
X180350309Y-104129000D01*
X179609750Y-104129000D01*
X179451000Y-104287750D01*
X179197000Y-104287750D01*
X179038250Y-104129000D01*
X178297691Y-104129000D01*
X178064302Y-104225673D01*
X177885673Y-104404301D01*
X177789000Y-104637690D01*
X159656000Y-104637690D01*
X159656000Y-102898000D01*
X198880676Y-102898000D01*
X198880676Y-106398000D01*
X198917423Y-106593294D01*
X199032842Y-106772660D01*
X199208951Y-106892990D01*
X199418000Y-106935324D01*
X202918000Y-106935324D01*
X203113294Y-106898577D01*
X203292660Y-106783158D01*
X203412990Y-106607049D01*
X203455324Y-106398000D01*
X203455324Y-104933750D01*
X204783000Y-104933750D01*
X204783000Y-106524310D01*
X204879673Y-106757699D01*
X205058302Y-106936327D01*
X205291691Y-107033000D01*
X206882250Y-107033000D01*
X207041000Y-106874250D01*
X207041000Y-104775000D01*
X207295000Y-104775000D01*
X207295000Y-106874250D01*
X207453750Y-107033000D01*
X209044309Y-107033000D01*
X209277698Y-106936327D01*
X209456327Y-106757699D01*
X209553000Y-106524310D01*
X209553000Y-104933750D01*
X209394250Y-104775000D01*
X207295000Y-104775000D01*
X207041000Y-104775000D01*
X204941750Y-104775000D01*
X204783000Y-104933750D01*
X203455324Y-104933750D01*
X203455324Y-102898000D01*
X203418577Y-102702706D01*
X203303158Y-102523340D01*
X203127049Y-102403010D01*
X202918000Y-102360676D01*
X199418000Y-102360676D01*
X199222706Y-102397423D01*
X199043340Y-102512842D01*
X198923010Y-102688951D01*
X198880676Y-102898000D01*
X159656000Y-102898000D01*
X159656000Y-100233750D01*
X201783000Y-100233750D01*
X201783000Y-101824310D01*
X201879673Y-102057699D01*
X202058302Y-102236327D01*
X202291691Y-102333000D01*
X203882250Y-102333000D01*
X204041000Y-102174250D01*
X204041000Y-100075000D01*
X204295000Y-100075000D01*
X204295000Y-102174250D01*
X204453750Y-102333000D01*
X205122696Y-102333000D01*
X205058302Y-102359673D01*
X204879673Y-102538301D01*
X204783000Y-102771690D01*
X204783000Y-104362250D01*
X204941750Y-104521000D01*
X207041000Y-104521000D01*
X207041000Y-102421750D01*
X207295000Y-102421750D01*
X207295000Y-104521000D01*
X209394250Y-104521000D01*
X209553000Y-104362250D01*
X209553000Y-102771690D01*
X209456327Y-102538301D01*
X209277698Y-102359673D01*
X209044309Y-102263000D01*
X207453750Y-102263000D01*
X207295000Y-102421750D01*
X207041000Y-102421750D01*
X206882250Y-102263000D01*
X206213304Y-102263000D01*
X206277698Y-102236327D01*
X206456327Y-102057699D01*
X206553000Y-101824310D01*
X206553000Y-100233750D01*
X206394250Y-100075000D01*
X204295000Y-100075000D01*
X204041000Y-100075000D01*
X201941750Y-100075000D01*
X201783000Y-100233750D01*
X159656000Y-100233750D01*
X159656000Y-98071690D01*
X201783000Y-98071690D01*
X201783000Y-99662250D01*
X201941750Y-99821000D01*
X204041000Y-99821000D01*
X204041000Y-97721750D01*
X204295000Y-97721750D01*
X204295000Y-99821000D01*
X206394250Y-99821000D01*
X206553000Y-99662250D01*
X206553000Y-98071690D01*
X206456327Y-97838301D01*
X206277698Y-97659673D01*
X206044309Y-97563000D01*
X204453750Y-97563000D01*
X204295000Y-97721750D01*
X204041000Y-97721750D01*
X203882250Y-97563000D01*
X202291691Y-97563000D01*
X202058302Y-97659673D01*
X201879673Y-97838301D01*
X201783000Y-98071690D01*
X159656000Y-98071690D01*
X159656000Y-95250005D01*
X159656001Y-95250000D01*
X159606370Y-95000491D01*
X159559471Y-94930302D01*
X159465034Y-94788966D01*
X159465031Y-94788964D01*
X158703034Y-94026966D01*
X158556961Y-93929364D01*
X158491510Y-93885631D01*
X158450113Y-93877396D01*
X158242000Y-93835999D01*
X158241995Y-93836000D01*
X152400005Y-93836000D01*
X152400000Y-93835999D01*
X152150491Y-93885630D01*
X152150489Y-93885631D01*
X152150490Y-93885631D01*
X151938966Y-94026966D01*
X151938964Y-94026969D01*
X151176966Y-94788966D01*
X151035631Y-95000490D01*
X151035631Y-95000491D01*
X150985999Y-95250000D01*
X150986000Y-95250005D01*
X150986000Y-96637327D01*
X150937312Y-96685930D01*
X150811144Y-96989778D01*
X150810857Y-97318779D01*
X115697000Y-97318779D01*
X115697000Y-95277740D01*
X117787883Y-95277740D01*
X117850835Y-95594219D01*
X118030106Y-95862517D01*
X118298404Y-96041788D01*
X118614883Y-96104740D01*
X119870797Y-96104740D01*
X120187276Y-96041788D01*
X120455574Y-95862517D01*
X120634845Y-95594219D01*
X120697797Y-95277740D01*
X122999883Y-95277740D01*
X123062835Y-95594219D01*
X123242106Y-95862517D01*
X123510404Y-96041788D01*
X123826883Y-96104740D01*
X125082797Y-96104740D01*
X125399276Y-96041788D01*
X125667574Y-95862517D01*
X125846845Y-95594219D01*
X125909797Y-95277740D01*
X125846845Y-94961261D01*
X125667574Y-94692963D01*
X125399276Y-94513692D01*
X125082797Y-94450740D01*
X123826883Y-94450740D01*
X123510404Y-94513692D01*
X123242106Y-94692963D01*
X123062835Y-94961261D01*
X122999883Y-95277740D01*
X120697797Y-95277740D01*
X120634845Y-94961261D01*
X120455574Y-94692963D01*
X120187276Y-94513692D01*
X119870797Y-94450740D01*
X118614883Y-94450740D01*
X118298404Y-94513692D01*
X118030106Y-94692963D01*
X117850835Y-94961261D01*
X117787883Y-95277740D01*
X115697000Y-95277740D01*
X115697000Y-93301063D01*
X179145705Y-93301063D01*
X179404273Y-93926846D01*
X179882636Y-94406044D01*
X180507966Y-94665704D01*
X181185063Y-94666295D01*
X181810846Y-94407727D01*
X182290044Y-93929364D01*
X182549704Y-93304034D01*
X182549706Y-93301063D01*
X184145705Y-93301063D01*
X184404273Y-93926846D01*
X184882636Y-94406044D01*
X185507966Y-94665704D01*
X186185063Y-94666295D01*
X186810846Y-94407727D01*
X187290044Y-93929364D01*
X187549704Y-93304034D01*
X187549706Y-93301063D01*
X194145705Y-93301063D01*
X194404273Y-93926846D01*
X194882636Y-94406044D01*
X195507966Y-94665704D01*
X196185063Y-94666295D01*
X196810846Y-94407727D01*
X197290044Y-93929364D01*
X197549704Y-93304034D01*
X197549706Y-93301063D01*
X199145705Y-93301063D01*
X199404273Y-93926846D01*
X199882636Y-94406044D01*
X200507966Y-94665704D01*
X201185063Y-94666295D01*
X201810846Y-94407727D01*
X202290044Y-93929364D01*
X202549704Y-93304034D01*
X202550295Y-92626937D01*
X202291727Y-92001154D01*
X201813364Y-91521956D01*
X201188034Y-91262296D01*
X200510937Y-91261705D01*
X199885154Y-91520273D01*
X199405956Y-91998636D01*
X199146296Y-92623966D01*
X199145705Y-93301063D01*
X197549706Y-93301063D01*
X197550295Y-92626937D01*
X197291727Y-92001154D01*
X196813364Y-91521956D01*
X196188034Y-91262296D01*
X195510937Y-91261705D01*
X194885154Y-91520273D01*
X194405956Y-91998636D01*
X194146296Y-92623966D01*
X194145705Y-93301063D01*
X187549706Y-93301063D01*
X187550295Y-92626937D01*
X187291727Y-92001154D01*
X186813364Y-91521956D01*
X186188034Y-91262296D01*
X185510937Y-91261705D01*
X184885154Y-91520273D01*
X184405956Y-91998636D01*
X184146296Y-92623966D01*
X184145705Y-93301063D01*
X182549706Y-93301063D01*
X182550295Y-92626937D01*
X182291727Y-92001154D01*
X181813364Y-91521956D01*
X181188034Y-91262296D01*
X180510937Y-91261705D01*
X179885154Y-91520273D01*
X179405956Y-91998636D01*
X179146296Y-92623966D01*
X179145705Y-93301063D01*
X115697000Y-93301063D01*
X115697000Y-88392000D01*
X116185888Y-88392000D01*
X116185557Y-88771783D01*
M02*
